<svg width="24" height="24" viewBox="0 0 24 24" fill="none" xmlns="http://www.w3.org/2000/svg">
<g clip-path="url(#clip0_73_5153)">
<path d="M12.7202 8.25H10.3594C10.23 8.25 10.125 8.35495 10.125 8.48438V11.0156C10.125 11.145 10.23 11.25 10.3594 11.25H12.75C13.5685 11.25 14.2359 10.5911 14.2498 9.77597C14.2641 8.93681 13.5594 8.25 12.7202 8.25Z" fill="white"/>
<path d="M12.7202 12.75H10.3594C10.23 12.75 10.125 12.855 10.125 12.9844V15.5156C10.125 15.645 10.23 15.75 10.3594 15.75H12.75C13.5685 15.75 14.2359 15.0911 14.2498 14.276C14.2641 13.4368 13.5594 12.75 12.7202 12.75Z" fill="white"/>
<path d="M20.4853 3.51469C18.2188 1.24819 15.2053 0 12 0C8.79469 0 5.78119 1.24819 3.51469 3.51469C1.24819 5.78119 0 8.79469 0 12C0 15.2053 1.24823 18.2188 3.51469 20.4853C5.78114 22.7519 8.79469 24 12 24C15.2053 24 18.2188 22.7518 20.4853 20.4853C22.7518 18.2188 24 15.2053 24 12C24 8.79469 22.7518 5.78123 20.4853 3.51469V3.51469ZM15.75 14.25C15.75 15.454 15.0367 16.494 14.0107 16.9712C13.9281 17.0097 13.875 17.0922 13.875 17.1834V17.9788C13.875 18.3827 13.5646 18.7302 13.1612 18.7492C12.7305 18.7694 12.375 18.4262 12.375 18V17.4844C12.375 17.355 12.27 17.25 12.1406 17.25H11.1094C10.98 17.25 10.875 17.355 10.875 17.4844V17.9788C10.875 18.3827 10.5646 18.7302 10.1612 18.7492C9.7305 18.7694 9.375 18.4262 9.375 18V17.4844C9.375 17.355 9.27005 17.25 9.14062 17.25H7.89619C7.49236 17.25 7.14488 16.9396 7.12584 16.5363C7.10555 16.1056 7.44872 15.75 7.875 15.75H8.39062C8.52005 15.75 8.625 15.645 8.625 15.5156V12V8.48438C8.625 8.35495 8.52005 8.25 8.39062 8.25H7.89619C7.49236 8.25 7.14488 7.93964 7.12584 7.53628C7.10555 7.10559 7.44872 6.75 7.875 6.75H9.14062C9.27005 6.75 9.375 6.64505 9.375 6.51562V6.02119C9.375 5.61731 9.68536 5.26983 10.0888 5.25084C10.5195 5.23059 10.875 5.57377 10.875 6V6.51562C10.875 6.64505 10.98 6.75 11.1094 6.75H12.1406C12.27 6.75 12.375 6.64505 12.375 6.51562V6.02119C12.375 5.61731 12.6854 5.26983 13.0888 5.25084C13.5195 5.23059 13.875 5.57377 13.875 6V6.81661C13.875 6.90778 13.9281 6.99033 14.0107 7.02877C15.0367 7.50595 15.75 8.54597 15.75 9.75C15.75 10.5602 15.4268 11.296 14.9029 11.8362C14.8141 11.9278 14.8141 12.0722 14.9029 12.1637C15.4268 12.704 15.75 13.4398 15.75 14.25Z" fill="white"/>
</g>
<defs>
<clipPath id="clip0_73_5153">
<rect width="24" height="24" fill="white"/>
</clipPath>
</defs>
</svg>
