<svg width="17" height="24" viewBox="0 0 17 24" fill="none" xmlns="http://www.w3.org/2000/svg">
<g clip-path="url(#clip0_73_5138)">
<path d="M7.23438 12.0038L16.2769 17.1334C16.3496 17.1766 16.4326 17.1999 16.5174 17.2009C16.6022 17.2019 16.6857 17.1805 16.7593 17.1389C16.833 17.0973 16.8941 17.0371 16.9365 16.9643C16.9789 16.8916 17.0009 16.809 17.0003 16.725V7.27546C17.0014 7.19135 16.9796 7.1085 16.9373 7.03559C16.8949 6.96267 16.8336 6.90237 16.7596 6.86099C16.6857 6.81962 16.6019 6.79868 16.5169 6.80039C16.432 6.80209 16.3491 6.82637 16.2769 6.87069L7.23438 12.0038Z" fill="white"/>
<path d="M16.0836 4.5994L9.90216 0.0967097C9.83791 0.0480727 9.76255 0.0158718 9.68274 0.0029576C9.60293 -0.00995663 9.52113 -0.00318594 9.4446 0.0226703C9.36806 0.0485266 9.29914 0.092671 9.24394 0.151196C9.18874 0.209721 9.14895 0.280821 9.12811 0.358202L6.87109 10.3881L16.0294 5.37313C16.0991 5.33763 16.1583 5.28493 16.2015 5.22013C16.2446 5.15533 16.2701 5.08061 16.2756 5.00319C16.281 4.92577 16.2662 4.84826 16.2326 4.77816C16.199 4.70805 16.1477 4.64772 16.0836 4.60298" fill="white"/>
<path d="M9.89492 23.9067L16.0836 19.4041C16.1477 19.3587 16.199 19.298 16.2328 19.2275C16.2665 19.1571 16.2816 19.0793 16.2765 19.0015C16.2715 18.9236 16.2464 18.8484 16.2038 18.7828C16.1612 18.7173 16.1024 18.6635 16.033 18.6267L6.87109 13.6118L9.12811 23.6417C9.14684 23.7196 9.18481 23.7917 9.23863 23.8515C9.29245 23.9113 9.36043 23.9569 9.43645 23.9843C9.51248 24.0116 9.59417 24.0198 9.6742 24.0082C9.75422 23.9965 9.83007 23.9654 9.89492 23.9175" fill="white"/>
<path d="M4.88318 11.821L7.23425 0.927896C7.2522 0.837658 7.24256 0.744165 7.20655 0.659386C7.17054 0.574607 7.1098 0.502399 7.03211 0.452004C6.95442 0.401609 6.86332 0.37532 6.77045 0.376503C6.67759 0.377686 6.5872 0.406286 6.51084 0.458643L0.488502 5.03297C0.336004 5.14883 0.212593 5.29802 0.127893 5.46889C0.043193 5.63976 -0.000506033 5.8277 0.000203669 6.01804V17.624C-0.00332406 17.8174 0.0390193 18.0089 0.123828 18.1831C0.208637 18.3573 0.333543 18.5093 0.488502 18.627L6.4819 23.1834C6.55826 23.2358 6.64865 23.2644 6.74152 23.2656C6.83438 23.2667 6.92549 23.2404 7.00318 23.1901C7.08087 23.1397 7.1416 23.0674 7.17761 22.9827C7.21362 22.8979 7.22327 22.8044 7.20531 22.7142L4.88318 11.821Z" fill="white"/>
</g>
<defs>
<clipPath id="clip0_73_5138">
<rect width="17" height="24" fill="white"/>
</clipPath>
</defs>
</svg>
