<svg xmlns="http://www.w3.org/2000/svg" width="60" height="60" viewBox="0 0 60 60" fill="none"><path d="M40.6 5H19.4C12.5 5 10 7.5 10 14.525V45.475C10 52.5 12.5 55 19.4 55H40.575C47.5 55 50 52.5 50 45.475V14.525C50 7.5 47.5 5 40.6 5ZM30 48.25C27.6 48.25 25.625 46.275 25.625 43.875C25.625 41.475 27.6 39.5 30 39.5C32.4 39.5 34.375 41.475 34.375 43.875C34.375 46.275 32.4 48.25 30 48.25ZM35 15.625H25C23.975 15.625 23.125 14.775 23.125 13.75C23.125 12.725 23.975 11.875 25 11.875H35C36.025 11.875 36.875 12.725 36.875 13.75C36.875 14.775 36.025 15.625 35 15.625Z" fill="#fff"></path></svg>