<svg width="24" height="24" viewBox="0 0 24 24" fill="none" xmlns="http://www.w3.org/2000/svg">
<g clip-path="url(#clip0_73_5143)">
<path d="M19.2044 1.8105C18.0854 0.543 16.0604 0 13.4699 0H5.95191C5.42241 0 4.97241 0.3825 4.88841 0.9L1.75795 20.5965C1.69645 20.985 1.99945 21.336 2.39545 21.336H7.03645L8.20195 14.001L8.16595 14.232C8.24845 13.7145 8.69695 13.332 9.22645 13.332H11.4315C15.7649 13.332 19.1564 11.586 20.1479 6.5355C20.1779 6.3855 20.2244 6.0975 20.2244 6.0975C20.5064 4.2285 20.2229 2.961 19.2044 1.8105Z" fill="white"/>
<path d="M21.399 7.05469C20.322 12.0272 16.8855 14.6582 11.4315 14.6582H9.45452L7.97852 24.0002H11.1855C11.649 24.0002 12.0435 23.6657 12.1155 23.2112L12.153 23.0132L12.891 18.3767L12.939 18.1217C13.011 17.6672 13.4055 17.3327 13.8675 17.3327H14.454C18.2445 17.3327 21.2115 15.8057 22.0785 11.3882C22.4265 9.61519 22.2585 8.12869 21.399 7.05469Z" fill="white"/>
</g>
<defs>
<clipPath id="clip0_73_5143">
<rect width="24" height="24" fill="white"/>
</clipPath>
</defs>
</svg>
