<svg width="251" height="88" viewBox="0 0 251 88" fill="none" xmlns="http://www.w3.org/2000/svg">
<g clip-path="url(#clip0_3_34)">
<g clip-path="url(#clip1_3_34)">
<path d="M70.9897 50.9128C70.2109 50.9256 69.4333 50.9776 68.6597 51.0684L57.398 30.951C59.9619 27.9085 61.3654 24.0564 61.3597 20.0776C61.3597 10.6792 53.7519 3.06808 44.4274 3.06808C35.1028 3.06808 27.4212 10.6792 27.4212 20.0776C27.4107 23.9835 28.7559 27.772 31.2274 30.7966L19.5716 51.1456C18.7261 50.991 17.8684 50.9131 17.0088 50.9128C13.1479 50.9117 9.40135 52.2239 6.38476 54.6337C3.36816 57.0435 1.2609 60.4077 0.409162 64.1735C-0.44258 67.9394 0.0118522 71.883 1.6978 75.3564C3.38375 78.8298 6.20096 81.6265 9.68659 83.287C13.1722 84.9476 17.119 85.3732 20.8785 84.494C24.6381 83.6148 27.9867 81.483 30.3745 78.4489C32.7622 75.4148 34.047 71.6588 34.0177 67.7979C33.9884 63.9371 32.6468 60.201 30.2134 57.2034L41.8634 36.8544C42.709 37.009 43.5667 37.0869 44.4262 37.0872C45.205 37.0744 45.9827 37.0224 46.7562 36.9316L57.9408 57.049C55.4715 60.0209 54.0891 63.7458 54.0218 67.6091C53.9544 71.4723 55.206 75.2432 57.5701 78.2994C59.9342 81.3556 63.2695 83.5146 67.0258 84.4202C70.782 85.3257 74.7348 84.9237 78.2318 83.2805C81.7289 81.6373 84.5612 78.851 86.2616 75.3814C87.9621 71.9118 88.4289 67.9662 87.5851 64.1956C86.7413 60.425 84.6374 57.0546 81.6204 54.6407C78.6034 52.2267 74.8536 50.9134 70.9897 50.9174V50.9128ZM44.4262 14.2503C47.6113 14.2503 50.2513 16.8915 50.2513 20.0754C50.2403 21.6169 49.623 23.0921 48.533 24.1821C47.443 25.2721 45.9677 25.8894 44.4262 25.9004C41.2469 25.9004 38.6012 23.2604 38.6012 20.0754C38.5936 19.3083 38.7391 18.5474 39.0291 17.8373C39.3192 17.1271 39.748 16.4819 40.2904 15.9395C40.8328 15.3971 41.478 14.9683 42.1881 14.6783C42.8983 14.3882 43.6592 14.2427 44.4262 14.2503ZM17.0088 73.6702C13.8295 73.6702 11.1838 71.0291 11.1838 67.8452C11.1838 64.6613 13.8249 62.019 17.0088 62.019C20.1927 62.019 22.8339 64.6658 22.8339 67.8452C22.8349 68.6104 22.685 69.3683 22.3926 70.0755C22.1002 70.7827 21.6712 71.4253 21.1301 71.9664C20.589 72.5075 19.9464 72.9366 19.2392 73.2289C18.532 73.5213 17.7741 73.6712 17.0088 73.6702ZM70.9897 73.6702C67.8047 73.6702 65.1647 71.0291 65.1647 67.8452C65.1647 64.6613 67.8047 62.019 70.9897 62.019C74.1748 62.019 76.8148 64.6658 76.8148 67.8452C76.8157 68.6104 76.6656 69.3682 76.3732 70.0754C76.0808 70.7825 75.6517 71.425 75.1106 71.9661C74.5696 72.5072 73.9271 72.9362 73.2199 73.2286C72.5128 73.521 71.7549 73.6711 70.9897 73.6702Z" fill="#E34F43"/>
</g>
<path d="M146.922 31.9023C143.485 28.9648 138.422 29.5273 135.235 32.7773L134.047 34.0273L132.797 32.7773C129.672 29.5273 124.547 28.9648 121.11 31.9023C117.172 35.2773 116.985 41.2773 120.485 44.9023L132.61 57.4023C133.36 58.2148 134.672 58.2148 135.422 57.4023L147.547 44.9023C151.047 41.2773 150.86 35.2773 146.922 31.9023Z" fill="#DC3232"/>
<path fill-rule="evenodd" clip-rule="evenodd" d="M204.76 11.9387C201.866 13.4421 199.331 15.5533 197.328 18.1278C195.326 20.7024 193.904 23.6793 193.159 26.8547C187.696 31.3811 183.762 37.4825 181.894 44.3266C180.026 51.1707 180.315 58.4245 182.721 65.0986C185.126 71.7727 189.532 77.5423 195.338 81.6206C201.143 85.6988 208.064 87.8871 215.159 87.8871C222.253 87.8871 229.175 85.6988 234.98 81.6206C240.786 77.5423 245.191 71.7727 247.597 65.0986C250.003 58.4245 250.292 51.1707 248.423 44.3266C246.555 37.4825 242.622 31.3811 237.159 26.8547C236.325 23.2925 234.639 19.986 232.245 17.2193C229.851 14.4526 226.821 12.3083 223.416 10.9707C223.299 10.1031 222.955 9.2818 222.42 8.58924C221.884 7.89668 221.176 7.3573 220.366 7.02533C220.293 5.49732 219.706 4.03868 218.701 2.88576C217.695 1.73284 216.33 0.953185 214.826 0.673114C213.322 0.393042 211.768 0.628966 210.415 1.34266C209.061 2.05635 207.989 3.206 207.371 4.60533C206.237 6.94763 205.361 9.4066 204.76 11.9387Z" fill="#395360"/>
<path d="M206.726 38.1333H224.326V58.6667H206.726V38.1333Z" fill="#FBAA6F"/>
<path fill-rule="evenodd" clip-rule="evenodd" d="M218.268 48.664L218.092 48.5467C217.645 48.2219 217.345 47.7327 217.258 47.1867C217.172 46.6407 217.305 46.0827 217.63 45.6353C217.955 45.188 218.444 44.888 218.99 44.8014C219.536 44.7147 220.094 44.8485 220.542 45.1733C220.179 45.2408 219.833 45.3808 219.526 45.5849C219.218 45.789 218.955 46.0531 218.752 46.3613C218.504 46.6842 218.331 47.0589 218.248 47.4575C218.164 47.8561 218.171 48.2685 218.268 48.664ZM211.698 48.664C211.781 48.2688 211.773 47.8597 211.674 47.4681C211.575 47.0766 211.387 46.713 211.126 46.4053C210.919 46.0978 210.652 45.8344 210.343 45.6305C210.033 45.4265 209.686 45.2861 209.322 45.2173C209.769 44.8925 210.327 44.7587 210.873 44.8454C211.419 44.932 211.908 45.232 212.233 45.6793C212.558 46.1267 212.692 46.6847 212.605 47.2307C212.518 47.7767 212.218 48.2659 211.771 48.5907C211.748 48.6166 211.724 48.6411 211.698 48.664ZM222.287 44H223.064L221.495 51.0693L218.356 60.5H212.064L207.356 52.6387L208.926 47.9307C210.495 50.028 211.551 51.3333 212.064 51.8613C212.856 52.6387 215.995 52.6387 217.564 51.0693C219.395 48.895 220.979 46.5241 222.287 44Z" fill="#DC7F3C"/>
<path fill-rule="evenodd" clip-rule="evenodd" d="M194.611 42.5333H202.326V29.3333H196.371C196.824 26.1612 198.07 23.1546 199.992 20.5911C201.915 18.0277 204.453 15.9901 207.371 14.6667C208.486 9.77777 209.81 6.47778 211.346 4.76666L211.61 4.51733L211.771 4.37066C212.228 4.00431 212.775 3.76638 213.355 3.68133C214.038 3.57348 214.737 3.67601 215.36 3.97528C215.982 4.27454 216.499 4.75636 216.842 5.35664C217.184 5.95692 217.336 6.6472 217.276 7.33566C217.216 8.02412 216.949 8.67812 216.508 9.21066H216.42C216.292 9.3706 216.144 9.51353 215.98 9.636C215.288 10.359 214.646 11.1283 214.059 11.9387C215.229 10.7206 216.783 9.94351 218.459 9.73866C218.796 9.73625 219.128 9.81685 219.427 9.97333C219.87 10.2261 220.197 10.6426 220.337 11.1334C220.477 11.6241 220.418 12.1502 220.175 12.5987C219.979 12.9609 219.67 13.2493 219.295 13.42C223.134 14.25 226.622 16.2453 229.284 19.133C231.946 22.0206 233.651 25.6599 234.167 29.5533L234.343 30.8293H228.726V42.5627H235.81L238.435 62.26C232.246 66.1027 224.497 68.024 215.188 68.024C205.88 68.024 198.17 66.0978 192.059 62.2453L194.611 42.5333ZM216.802 56.3053C220.586 50.0573 222.478 46.3369 222.478 45.144C222.478 41.8733 217.711 39.1893 215.335 39.1893C212.959 39.1893 208.192 41.8587 208.192 45.144C208.192 46.3369 210.055 50.0622 213.78 56.32C213.947 56.5799 214.177 56.793 214.449 56.9393C214.721 57.0855 215.026 57.1601 215.335 57.156C215.632 57.1705 215.927 57.1012 216.186 56.9559C216.446 56.8107 216.659 56.5954 216.802 56.3347V56.3053Z" fill="#BDCFC8"/>
<path fill-rule="evenodd" clip-rule="evenodd" d="M238.714 71.6027C235.984 75.2709 232.434 78.2503 228.348 80.3028C224.263 82.3554 219.753 83.4243 215.181 83.4243C210.608 83.4243 206.099 82.3554 202.013 80.3028C197.927 78.2503 194.378 75.2709 191.648 71.6027L192.88 62.6413C193.347 62.8271 193.845 62.9217 194.347 62.92C195.348 62.923 196.317 62.5639 197.074 61.9089C197.832 61.254 198.327 60.3473 198.468 59.356V61.1453C198.468 62.2501 198.907 63.3095 199.688 64.0907C200.469 64.8718 201.529 65.3107 202.634 65.3107C203.738 65.3107 204.798 64.8718 205.579 64.0907C206.36 63.3095 206.799 62.2501 206.799 61.1453V63.5213C206.862 64.5852 207.329 65.5848 208.105 66.3158C208.88 67.0468 209.906 67.4538 210.972 67.4538C212.037 67.4538 213.063 67.0468 213.838 66.3158C214.614 65.5848 215.081 64.5852 215.144 63.5213C215.144 64.6261 215.583 65.6855 216.364 66.4667C217.145 67.2478 218.205 67.6867 219.31 67.6867C220.414 67.6867 221.474 67.2478 222.255 66.4667C223.036 65.6855 223.475 64.6261 223.475 63.5213V61.2187C223.475 61.7657 223.583 62.3073 223.792 62.8127C224.001 63.318 224.308 63.7772 224.695 64.164C225.082 64.5508 225.541 64.8576 226.046 65.0669C226.552 65.2763 227.093 65.384 227.64 65.384C228.187 65.384 228.729 65.2763 229.234 65.0669C229.74 64.8576 230.199 64.5508 230.586 64.164C230.972 63.7772 231.279 63.318 231.489 62.8127C231.698 62.3073 231.806 61.7657 231.806 61.2187V59.4293C231.936 60.4555 232.444 61.3964 233.23 62.0687C234.017 62.7411 235.025 63.0968 236.059 63.0667C236.56 63.0666 237.056 62.9772 237.526 62.8027L238.714 71.6027Z" fill="#809EB0"/>
<path fill-rule="evenodd" clip-rule="evenodd" d="M192.499 65.4867L192.88 62.7147C193.347 62.9004 193.845 62.995 194.347 62.9933C195.348 62.9963 196.317 62.6372 197.074 61.9822C197.832 61.3273 198.327 60.4206 198.468 59.4293V61.2187C198.468 62.3234 198.907 63.3828 199.688 64.164C200.469 64.9452 201.529 65.384 202.634 65.384C203.738 65.384 204.798 64.9452 205.579 64.164C206.36 63.3828 206.799 62.3234 206.799 61.2187V63.5947C206.862 64.6586 207.329 65.6582 208.105 66.3891C208.88 67.1201 209.906 67.5272 210.972 67.5272C212.037 67.5272 213.063 67.1201 213.838 66.3891C214.614 65.6582 215.081 64.6586 215.144 63.5947C215.144 64.6994 215.583 65.7588 216.364 66.54C217.145 67.3211 218.205 67.76 219.31 67.76C220.414 67.76 221.474 67.3211 222.255 66.54C223.036 65.7588 223.475 64.6994 223.475 63.5947V61.2187C223.475 62.3234 223.914 63.3828 224.695 64.164C225.476 64.9452 226.536 65.384 227.64 65.384C228.745 65.384 229.804 64.9452 230.586 64.164C231.367 63.3828 231.806 62.3234 231.806 61.2187V59.4293C231.936 60.4555 232.444 61.3964 233.23 62.0687C234.017 62.7411 235.025 63.0968 236.059 63.0667C236.56 63.0666 237.056 62.9772 237.526 62.8027L237.892 65.5747C237.302 65.8631 236.652 66.0083 235.995 65.9986C235.339 65.9889 234.693 65.8245 234.112 65.5188C233.53 65.2131 233.029 64.7746 232.649 64.239C232.269 63.7034 232.02 63.0857 231.923 62.436V64.2253C231.923 65.33 231.484 66.3895 230.703 67.1707C229.922 67.9518 228.862 68.3907 227.758 68.3907C226.653 68.3907 225.593 67.9518 224.812 67.1707C224.031 66.3895 223.592 65.33 223.592 64.2253V66.6013C223.592 67.706 223.153 68.7655 222.372 69.5467C221.591 70.3278 220.532 70.7667 219.427 70.7667C218.322 70.7667 217.263 70.3278 216.482 69.5467C215.7 68.7655 215.262 67.706 215.262 66.6013C215.198 67.6652 214.731 68.6648 213.956 69.3958C213.18 70.1267 212.155 70.5338 211.089 70.5338C210.023 70.5338 208.998 70.1267 208.222 69.3958C207.446 68.6648 206.979 67.6652 206.916 66.6013V64.152C206.916 65.2567 206.477 66.3162 205.696 67.0973C204.915 67.8785 203.856 68.3173 202.751 68.3173C201.646 68.3173 200.587 67.8785 199.806 67.0973C199.024 66.3162 198.586 65.2567 198.586 64.152V62.3627C198.459 63.3825 197.958 64.319 197.18 64.9909C196.403 65.6628 195.404 66.0224 194.376 66C193.725 65.999 193.083 65.8484 192.499 65.56V65.4867Z" fill="#738E9E"/>
<path fill-rule="evenodd" clip-rule="evenodd" d="M235.736 32.8387C234.27 28.6293 231.336 25.96 228.814 26.224C225.587 26.5613 224.795 31.7387 225.455 37.9573C226.115 44.176 227.948 49.0453 231.175 48.708C234.402 48.3707 237.042 43.0027 236.572 36.9747C236.455 38.7787 235.81 40.3187 234.534 40.4213C232.891 40.568 232.422 38.676 232.202 36.2853C231.982 33.8947 231.996 31.8853 233.668 31.768C234.078 31.7368 234.489 31.8205 234.854 32.0096C235.22 32.1987 235.525 32.4858 235.736 32.8387Z" fill="#86A196"/>
<path fill-rule="evenodd" clip-rule="evenodd" d="M234.592 31.9C233.668 30.1253 232.392 29.04 231.087 29.1867C228.872 29.4067 228.344 32.956 228.784 37.2093C229.224 41.4627 230.5 44.8067 232.7 44.5427C234.328 44.3667 235.531 42.3427 235.868 39.5853C235.732 39.8181 235.543 40.0153 235.316 40.1606C235.089 40.306 234.831 40.3953 234.563 40.4213C232.92 40.568 232.451 38.676 232.231 36.2853C232.011 33.8947 232.026 31.8853 233.698 31.768C234.002 31.7539 234.305 31.7988 234.592 31.9Z" fill="white"/>
<path fill-rule="evenodd" clip-rule="evenodd" d="M194.406 32.8387C195.872 28.6293 198.806 25.96 201.328 26.224C204.555 26.5613 205.347 31.7387 204.687 37.9573C204.027 44.176 202.194 49.0453 198.967 48.708C195.74 48.3707 193.1 43.0027 193.57 36.9747C193.687 38.7787 194.318 40.3187 195.608 40.4213C197.251 40.568 197.72 38.676 197.926 36.2853C198.131 33.8947 198.146 31.8853 196.459 31.768C196.047 31.7283 195.632 31.8048 195.261 31.9888C194.891 32.1729 194.579 32.4571 194.362 32.8093L194.406 32.8387Z" fill="#86A196"/>
<path fill-rule="evenodd" clip-rule="evenodd" d="M195.535 31.9C196.459 30.1253 197.75 29.04 199.055 29.1867C201.255 29.4067 201.798 32.956 201.343 37.2093C200.888 41.4627 199.642 44.8067 197.427 44.5427C195.799 44.3667 194.596 42.3427 194.259 39.5853C194.398 39.8184 194.59 40.0155 194.819 40.1608C195.049 40.306 195.309 40.3953 195.579 40.4213C197.207 40.568 197.691 38.676 197.896 36.2853C198.102 33.8947 198.102 31.8853 196.43 31.768C196.113 31.7414 195.794 31.7762 195.491 31.8707L195.535 31.9Z" fill="white"/>
<path fill-rule="evenodd" clip-rule="evenodd" d="M208.192 41.9907C208.17 41.6537 208.17 41.3157 208.192 40.9787C208.192 37.356 209.967 33.2347 215.335 33.2347C220.703 33.2347 222.478 37.356 222.478 40.9787C222.47 41.4733 222.406 41.9654 222.287 42.4453C221.114 40.4653 218.914 39.248 215.247 39.248C211.771 39.292 209.512 40.304 208.192 41.9907Z" fill="#F4F8FF"/>
<path fill-rule="evenodd" clip-rule="evenodd" d="M219.222 13.4347L214.558 13.2L220.322 11.4987C220.354 11.8945 220.266 12.2907 220.07 12.6359C219.873 12.9812 219.578 13.2595 219.222 13.4347ZM214.059 11.9387L212.123 13.4053C213.327 11.7176 214.312 9.88435 215.056 7.94933C215.481 6.69041 215.641 5.35707 215.526 4.03333C216.107 4.35505 216.583 4.83727 216.898 5.42244C217.213 6.0076 217.352 6.67097 217.3 7.33333C217.21 8.17918 216.82 8.96471 216.2 9.548C215.429 10.2917 214.714 11.0907 214.059 11.9387Z" fill="#86A196"/>
</g>
<defs>
<clipPath id="clip0_3_34">
<rect width="250.432" height="88" fill="white"/>
</clipPath>
<clipPath id="clip1_3_34">
<rect width="88" height="81.8638" fill="white" transform="translate(0 3.06808)"/>
</clipPath>
</defs>
</svg>
