<svg width="190" height="168" viewBox="0 0 190 168" fill="none" xmlns="http://www.w3.org/2000/svg">
<g clip-path="url(#clip0_1_2)">
<path d="M105.52 159.217C188.72 159.717 192.02 159.117 189.42 161.117C187.82 162.317 -171.78 157.617 105.52 159.217Z" fill="#23282C"/>
<path d="M79.4203 124.316C117.22 125.116 114.12 123.617 120.62 124.117C130.72 125.017 130.02 129.316 126.92 156.816C126.62 159.416 126.32 162.017 125.32 164.517C123.32 169.617 80.9204 167.217 72.5204 165.017C70.8204 164.617 69.5204 163.616 69.0204 161.816C67.8204 158.116 67.1203 154.417 66.7203 150.517C64.0203 125.217 62.3203 123.916 79.4203 124.316ZM100.42 152.117C99.72 151.717 99.02 151.416 98.62 150.816C97.82 149.316 98.62 147.517 100.32 147.017C100.72 146.917 101.32 146.816 100.72 146.316C98.92 144.516 96.62 143.517 94.0204 145.217C89.4204 148.117 93.6203 157.417 100.42 152.117ZM96.02 140.816C96.42 142.616 96.62 143.617 97.92 142.217C98.92 141.117 99.92 140.017 100.12 138.417C100.22 136.117 96.02 138.116 96.02 140.816Z" fill="#60B9B3"/>
<path d="M108.62 50.6166C112.02 53.9166 113.32 59.0165 112.62 62.5165C112.42 63.7165 114.52 64.6165 112.22 68.5165C111.82 69.2165 111.82 69.5165 112.52 70.0165C116.52 72.6165 114.82 79.0165 108.32 77.5165C108.02 77.4165 107.62 76.9163 107.32 77.3163C106.32 78.6163 106.62 77.8166 106.52 83.1166C106.52 83.5166 106.52 83.9167 106.42 84.217C106.32 84.517 106.42 84.916 106.02 84.916C105.12 84.816 105.62 80.9166 105.62 80.1166C105.72 77.6166 103.02 84.716 94.8204 81.8163C95.02 87.716 94.0203 87.316 95.42 87.816C103.12 90.116 105.12 86.317 106.42 86.017C106.02 88.417 102.12 89.917 97.52 89.217C94.3204 88.717 94.0204 87.816 94.0204 85.816C94.0204 81.7163 94.0204 81.5167 93.5204 81.2167C91.7204 80.1167 90.5204 78.5165 89.8204 76.5165C88.8204 77.7165 87.5204 78.3165 86.0204 78.0165C82.1204 77.2165 82.9204 72.2166 86.0204 70.6166C86.9204 70.1166 86.2205 70.3164 84.6205 67.4164C82.9205 64.3164 85.2204 63.3164 85.0204 62.4164C83.3204 54.0164 89.2203 46.4166 97.92 46.1166C98.62 46.1166 98.82 46.0165 98.82 45.2165C98.72 39.5165 107.12 36.8166 110.62 41.1166C113.42 44.0166 113.22 48.0166 108.62 50.6166ZM98.72 54.7165C96.32 60.2165 91.1203 65.7166 88.9203 64.1166C86.1203 62.0166 83.3204 65.2164 87.5204 69.4164C88.0204 69.9164 88.6203 70.4167 89.4203 69.7167C91.2203 84.317 101.22 83.7167 106.22 77.2167C108.52 74.2167 107.82 70.0165 109.62 70.0165C109.82 70.0165 111.82 68.0166 112.02 65.6166C112.12 64.1166 111.32 63.5166 109.92 64.1166C107.12 65.3166 101.12 60.0165 98.72 54.7165ZM110.22 76.8163C113.12 76.9163 114.22 74.6164 113.62 72.4164C113.32 71.3164 112.42 70.8167 111.52 70.2167C110.82 69.7167 110.62 70.9164 109.72 70.9164C109.02 70.9164 109.42 71.0163 108.42 74.8163C108.02 76.6163 108.22 76.7163 110.22 76.8163ZM87.2203 77.2167C88.8203 77.2167 89.8204 75.9164 89.5204 74.4164C88.7204 70.9164 88.8205 71.0164 88.6205 70.9164C88.0205 70.8164 87.4203 70.6166 86.7203 71.1166C83.6203 73.4166 83.9203 77.3167 87.2203 77.2167Z" fill="#23282C"/>
<path d="M111.62 87.817C115.52 84.517 159.52 100.217 147.42 134.217C145.92 138.517 143.32 142.317 140.32 145.817C135.42 151.317 125.12 153.217 131.92 149.617C134.42 148.317 137.02 147.217 138.82 145.017C164.32 114.917 129.52 87.817 111.62 87.817Z" fill="#23282C"/>
<path d="M73.8205 113.517C71.3205 110.917 69.7203 97.917 69.4203 92.717C69.3203 91.317 69.5203 92.017 56.4203 90.117C55.8203 90.017 55.5204 90.117 55.2204 90.717C48.9204 102.617 43.3204 114.817 48.5204 132.717C49.9204 137.617 54.8204 141.817 60.2204 139.217C62.3204 138.217 63.6203 137.716 61.9203 139.316C57.1203 143.716 48.9204 140.816 46.5204 130.816C41.5204 110.316 52.1204 95.017 54.7204 90.517C55.1204 89.817 55.7204 89.417 56.5204 89.517C60.6204 89.517 64.5204 90.217 68.5204 91.117C70.1204 91.517 70.1205 91.517 70.3205 93.117C71.8205 105.117 74.3205 111.017 73.8205 113.517Z" fill="#23282C"/>
<path d="M72.4203 94.317C75.6203 90.517 88.8204 86.017 92.0204 86.917C92.9204 87.217 92.6204 88.217 92.8204 88.817C94.9204 96.117 99.42 106.517 99.92 106.517C100.32 106.517 100.22 106.117 100.32 105.917C102.02 100.117 105.02 94.917 107.62 89.617C107.82 89.217 108.02 88.717 108.62 88.717C107.82 92.317 105.82 94.117 101.02 106.917C100.92 107.317 100.92 107.517 101.32 107.717C102.62 108.417 103.02 110.317 101.92 111.417C99.92 113.517 96.62 110.317 98.52 108.317C100.12 106.617 97.22 105.617 93.6205 94.317C91.6205 88.117 92.6204 87.417 91.0204 87.617C80.2204 88.917 73.8203 94.217 72.4203 94.317ZM101.22 109.917C101.22 108.217 98.92 107.617 98.92 109.817C98.92 111.117 101.12 111.617 101.22 109.917Z" fill="#23282C"/>
<path d="M62.6205 65.9165C62.7205 67.1165 58.4204 73.8166 58.5204 82.0166C58.5204 85.917 59.0204 86.717 58.3204 86.717C57.8204 86.717 56.5203 79.6168 58.7203 73.2168C59.3203 71.3168 60.6205 66.5165 62.6205 65.9165Z" fill="#23282C"/>
<path d="M77.3204 77.8166C76.7204 85.817 69.7204 88.717 69.3204 87.617C69.1204 86.917 73.9203 85.717 75.5203 79.717C75.7203 79.117 76.2204 76.8167 76.8204 76.9167C77.4204 76.9167 77.3204 78.0166 77.3204 77.8166Z" fill="#23282C"/>
<path d="M121.42 120.816C120.62 120.516 121.32 119.016 121.42 118.016C121.92 113.316 123.72 107.917 124.22 107.117C124.42 106.717 125.02 106.816 125.02 107.416C125.02 107.616 124.32 110.617 122.72 117.617C122.42 118.717 122.22 121.216 121.42 120.816Z" fill="#23282C"/>
<path d="M60.4203 76.2169C63.2203 75.6169 70.9203 76.9168 72.2203 79.6168C68.4203 78.0168 64.5203 76.9169 60.4203 76.2169Z" fill="#23282C"/>
<path d="M75.3204 68.2169C75.9204 68.7169 74.3203 69.1167 70.4203 76.5167C70.3203 76.7167 70.2203 76.9166 69.9203 76.9166C68.6203 76.5166 74.0204 67.1169 75.3204 68.2169Z" fill="#23282C"/>
<path d="M66.2204 75.4166C66.1204 72.7166 71.1204 64.6167 72.0204 65.5167C72.3204 65.8167 72.0204 66.0169 71.8204 66.2169C66.0204 74.6169 67.2204 74.2166 66.2204 75.4166Z" fill="#23282C"/>
<path d="M62.8204 74.6166C61.4204 73.6166 66.7203 63.9164 67.9203 64.9164C68.5203 65.4164 65.0203 67.8167 63.2203 74.2167C63.1203 74.3167 63.1204 74.5166 62.8204 74.6166Z" fill="#23282C"/>
<path d="M97.92 67.7168C98.52 72.9168 98.22 73.5166 99.72 73.0166C100.02 72.9166 100.22 73.3168 99.82 73.7168C99.12 74.2168 98.22 73.9167 97.92 73.1167C97.62 72.0167 97.62 70.9164 97.62 69.8164C97.62 69.1164 97.12 67.7168 97.92 67.7168Z" fill="#23282C"/>
<path d="M104.72 73.4166C104.72 75.5166 101.82 76.8168 101.52 76.1168C101.22 75.4168 103.42 75.7167 103.92 73.0167C104.02 72.3167 104.62 72.5166 104.72 73.4166Z" fill="#23282C"/>
<path d="M93.5203 63.9163C93.8203 63.9163 94.3202 63.8166 94.4202 64.2166C94.5202 64.7166 92.7202 64.8164 91.9202 65.5164C91.1202 66.2164 90.8203 64.0163 93.5203 63.9163Z" fill="#23282C"/>
<path d="M105.32 64.0168C105.22 64.5168 105.12 64.3169 103.32 64.1169C103.02 64.1169 102.72 64.117 102.62 63.717C102.52 62.817 105.52 62.9168 105.32 64.0168Z" fill="#23282C"/>
<path d="M104.72 68.8164C104.02 68.8164 104.12 68.1167 104.02 67.6167C104.02 67.2167 104.12 66.7168 104.62 66.7168C105.62 66.7168 105.52 68.8164 104.72 68.8164Z" fill="#23282C"/>
<path d="M93.2203 67.4165C94.2203 67.5165 94.3204 69.5165 93.3204 69.4165C92.3204 69.4165 92.2203 67.4165 93.2203 67.4165Z" fill="#23282C"/>
<path d="M97.42 32.9167C80.7202 33.3167 74.4204 14.1167 85.8204 4.41669C91.5204 -0.383314 99.42 -0.683214 105.12 2.51679C120.32 11.2168 113.92 32.5167 97.42 32.9167ZM112.52 16.5168C112.82 6.81679 103.22 -1.08331 92.8204 1.91669C80.3204 5.51669 77.6203 19.6167 85.5203 27.2167C95.82 37.3167 112.82 29.6168 112.52 16.5168Z" fill="#60B9B3"/>
<path d="M51.1205 49.8168C50.5205 62.5168 37.3204 69.7168 26.3204 64.1168C13.8204 57.7168 14.7203 40.1167 27.9203 34.7167C39.5203 30.0167 51.6205 39.4168 51.1205 49.8168ZM34.5204 34.5167C23.7204 34.5167 16.3204 44.6168 19.0204 53.8168C22.8204 66.5168 39.4203 68.9169 47.2203 58.2169C54.0203 48.9169 47.9204 34.5167 34.5204 34.5167Z" fill="#60B9B3"/>
<path d="M171.92 126.717C158.12 126.817 149.721 110.717 159.621 99.717C169.021 89.417 186.32 94.617 188.72 107.317C190.72 118.217 182.02 126.617 171.92 126.717ZM187.82 110.217C188.42 94.917 166.32 88.917 158.22 103.417C151.32 115.717 164.72 130.517 179.02 124.017C184.62 121.517 187.92 115.917 187.82 110.217Z" fill="#60B9B3"/>
<path d="M16.7202 127.516C2.82022 127.116 -3.77983 113.417 2.42017 103.117C7.7202 94.317 18.8202 93.016 26.4202 98.016C40.6202 107.516 32.4202 127.916 16.7202 127.516ZM17.2202 126.416C31.0202 126.616 38.9202 107.417 25.9202 98.617C17.6202 93.017 6.3203 96.516 2.32032 105.416C-1.97968 115.016 4.92022 126.216 17.2202 126.416Z" fill="#60B9B3"/>
<path d="M57.5203 153.517C56.3203 153.517 55.3203 153.717 54.2203 153.217C42.7203 147.517 32.4204 139.117 24.6204 128.617C24.4204 128.317 24.0203 128.017 24.5203 127.717C26.2203 126.517 27.6203 133.817 42.5203 144.617C51.3203 151.017 57.2203 152.917 57.5203 153.517Z" fill="#60B9B3"/>
<path d="M78.6204 19.7165C78.8204 21.1165 63.5203 21.4165 45.2203 33.4165C44.5203 33.8165 44.1203 34.1166 43.5203 33.3166C42.9203 32.5166 54.0203 26.8165 58.5203 24.9165C69.1203 20.4165 77.9203 19.2167 78.0203 19.1167C78.5203 18.9167 78.6204 19.3165 78.6204 19.7165Z" fill="#60B9B3"/>
<path d="M180.92 90.816C180.82 66.3165 167.52 54.9167 168.62 52.8167C168.72 52.5167 168.92 52.2166 169.22 52.7166C187.12 77.9166 181.02 106.816 180.92 90.816Z" fill="#60B9B3"/>
<path d="M12.2203 93.717C11.7203 93.717 11.6204 93.517 11.6204 93.117C10.3204 77.1169 18.1204 59.6169 19.1204 60.1169C21.2204 61.1169 17.2204 63.117 14.3204 75.717C11.0204 90.217 14.0203 94.017 12.2203 93.717Z" fill="#60B9B3"/>
<path d="M144.22 149.917C167.72 135.117 167.42 126.817 169.62 128.217C170.52 128.817 161.12 140.917 148.42 148.917C146.92 149.917 146.32 150.117 144.22 149.917Z" fill="#60B9B3"/>
<path d="M145.22 30.9169C145.12 31.3169 144.12 31.5171 143.72 31.3171C141.12 29.7171 138.52 28.417 135.72 27.217C119.22 19.717 114.32 21.8171 114.62 19.8171C114.72 19.4171 114.82 19.3169 115.22 19.4169C131.42 22.6169 145.12 30.3169 145.22 30.9169Z" fill="#60B9B3"/>
<path d="M156.52 47.8169C156.52 45.6169 156.22 44.7168 157.52 44.7168C158.52 44.7168 158.121 42.9167 157.121 43.4167C155.721 44.0167 155.82 42.8167 155.52 41.4167C155.22 40.2167 153.221 41.8168 152.121 39.7168C151.621 38.8168 147.72 39.3169 146.02 40.3169C144.92 40.9169 144.621 40.8168 144.121 39.7168C143.621 38.6168 143.92 37.2169 144.92 36.3169C147.12 34.3169 148.22 36.6168 148.82 35.7168C149.72 34.3168 152.221 33.5169 153.621 35.8169C154.221 36.9169 154.62 35.6168 156.42 36.0168C158.02 36.3168 158.72 37.9168 157.72 39.2168C157.22 39.8168 157.12 40.3168 157.32 41.0168C157.52 41.9168 156.92 42.6167 158.02 42.9167C159.12 43.2167 159.021 45.1169 157.621 45.3169C156.921 45.4169 156.82 45.7169 156.82 46.3169C156.82 48.2169 156.821 50.0169 157.121 51.8169C157.321 53.2169 157.52 52.3168 162.22 55.7168C162.52 55.9168 162.52 56.1167 162.32 56.4167C162.12 56.7167 161.92 56.8169 161.52 56.6169C156.72 52.9169 156.921 53.3167 156.621 51.9167C156.521 50.6167 156.42 49.2169 156.52 47.8169Z" fill="#23282C"/>
<path d="M145.321 41.1172C146.421 42.9172 143.82 52.017 149.92 50.917C151.02 50.717 152.12 50.6171 153.02 50.0171C153.22 49.9171 153.421 49.717 153.621 49.917C153.821 50.217 153.521 50.3171 153.321 50.5171C151.721 51.8171 149.42 51.317 149.42 51.917C149.42 52.717 149.121 53.6171 149.821 54.3171C152.721 57.4171 155.22 54.2171 156.02 54.0171C156.12 55.3171 154.721 56.6173 153.321 56.7173C149.121 56.9173 149.72 54.1171 148.52 54.8171C144.12 57.2171 144.021 57.1169 143.821 56.8169C143.521 56.2169 148.221 54.1172 148.321 54.1172C149.221 53.7172 148.82 52.9171 148.92 52.3171C149.12 50.8171 143.721 53.6172 145.321 41.1172Z" fill="#23282C"/>
<path d="M149.52 47.9166C151.62 46.9166 151.82 46.0166 152.02 46.4166C153.22 49.1166 150.92 49.5167 150.72 49.0167C150.52 48.4167 152.52 48.7166 151.72 47.4166C151.42 46.9166 150.82 48.4166 149.52 47.9166Z" fill="#23282C"/>
<path d="M149.52 46.2166C149.02 46.6166 148.62 46.7166 148.32 46.5166C147.92 46.3166 148.22 45.9167 148.22 45.6167C148.42 44.8167 148.32 44.0166 148.82 43.0166C149.32 44.8166 147.82 46.4166 149.52 46.2166Z" fill="#23282C"/>
<path d="M146.12 41.3168C146.42 40.4168 147.82 40.4168 147.82 41.0168C147.82 41.4168 147.72 41.2168 146.12 41.3168Z" fill="#23282C"/>
<path d="M151.72 40.6172C152.92 40.7172 152.92 41.5171 152.32 41.3171C151.92 41.1171 151.22 41.5171 151.02 41.0171C150.92 40.6171 151.52 40.8172 151.72 40.6172Z" fill="#23282C"/>
<path d="M152.42 42.917C153.02 43.017 153.02 44.0172 152.42 44.1172C151.92 44.1172 151.82 43.017 152.42 42.917Z" fill="#23282C"/>
<path d="M146.82 43.1172C147.42 43.2172 147.52 44.3171 146.92 44.3171C146.32 44.4171 146.32 43.2172 146.82 43.1172Z" fill="#23282C"/>
<path d="M94.1206 21.3169C92.1206 22.9169 91.3204 23.5167 88.7204 23.9167C87.9204 24.0167 87.6205 23.7168 87.5205 23.0168C87.1205 18.5168 87.1204 16.1169 87.9204 11.6169C90.0204 1.01689 106.22 2.31679 104.42 17.0168C104.32 17.8168 103.921 18.2169 103.121 18.3169C99.321 18.8169 99.22 16.9168 99.42 22.2168C99.42 23.0168 101.821 22.9169 104.121 25.1169C104.621 25.6169 106.12 27.2169 105.42 27.6169C105.02 27.9169 104.92 27.3168 103.72 26.0168C102.62 24.9168 101.221 24.3169 99.821 23.6169C99.621 23.5169 99.421 23.5168 99.121 23.7168C96.021 26.4168 94.9206 22.9168 93.6206 24.2168C93.1206 24.6168 90.4205 25.9169 89.0205 27.3169C87.9205 28.4169 87.7206 26.2168 92.6206 24.0168C94.3206 23.4168 94.4206 23.2169 94.1206 21.3169ZM98.02 8.51679C97.32 9.01679 97.821 10.8168 95.621 10.7168C94.7206 10.6168 93.8204 10.7168 92.9204 10.7168C92.6204 10.7168 92.2204 10.6169 92.2204 11.1169C92.0204 13.3169 91.7204 15.5168 92.4204 17.7168C93.2204 19.9168 95.12 20.7168 97.22 19.7168C98.82 18.9168 97.32 21.0168 95.72 20.7168C94.7204 20.5168 94.6205 21.0169 94.8205 21.8169C94.9205 22.3169 94.5205 23.0168 95.02 23.2168C95.92 23.7168 96.82 24.3168 97.92 24.0168C98.62 23.8168 99.12 23.5168 99.02 22.5168C98.52 18.9168 99.72 17.9169 100.02 16.6169C100.72 14.0169 102.32 15.4169 101.92 13.8169C101.62 12.4169 99.421 15.0168 99.621 12.2168C99.621 11.6168 99.921 10.8167 99.321 10.9167C98.221 11.1167 98.021 10.5168 98.121 9.51679C98.121 9.21679 98.02 8.91679 98.02 8.51679Z" fill="#23282C"/>
<path d="M31.9204 56.217C30.2204 57.217 29.5206 55.917 29.1206 56.217C28.2206 56.817 27.5205 56.4169 27.0205 55.6169C26.8205 55.3169 26.6205 55.3167 26.3205 55.4167C24.2205 56.1167 24.7205 54.1169 23.5205 54.1169C20.4205 54.3169 22.0205 50.8168 24.3205 49.0168C26.9205 47.0168 24.5204 44.9168 26.7204 41.5168C28.1204 39.2168 31.1205 37.9168 33.0205 39.7168C33.2205 39.9168 33.3204 40.2167 33.7204 39.9167C36.6204 37.8167 40.0206 38.7167 41.6206 41.9167C43.0206 44.9167 41.9206 46.7169 44.1206 49.6169C45.4206 51.2169 45.9205 52.6167 44.0205 53.4167C43.3205 53.7167 42.9206 54.5168 42.1206 54.2168C41.2206 53.9168 41.6204 55.6167 39.9204 54.9167C39.0204 54.5167 38.7204 56.2168 37.2204 55.2168C36.7204 54.8168 36.5205 55.0169 36.5205 55.6169C36.4205 57.1169 37.0204 57.917 38.4204 58.217C39.6204 58.517 44.2204 59.717 43.7204 60.717C43.3204 61.517 42.3204 59.8166 37.7204 58.8166C36.2204 58.5166 37.0204 61.5168 33.7204 60.5168C33.2204 60.3168 32.7204 60.1166 32.4204 59.8166C31.2204 58.1166 30.7205 59.9166 26.5205 61.3166C26.2205 61.4166 25.8204 61.617 25.7204 61.217C25.6204 60.817 26.0204 60.7168 26.2204 60.5168C31.6204 57.9168 32.0204 58.217 31.9204 56.217ZM32.8205 54.6169C34.1205 54.9169 35.8205 55.6168 37.3205 53.7168C39.7205 50.7168 38.2205 49.2167 40.0205 49.4167C40.5205 49.5167 41.1205 49.2167 41.0205 48.4167C40.9205 47.7167 40.3205 47.8169 39.8205 47.8169C39.4205 47.8169 38.8204 48.3168 38.7204 47.5168C38.6204 45.7168 38.8204 45.0167 37.9204 45.4167C37.4204 45.6167 36.8205 45.5168 36.3205 45.0168C35.8205 44.5168 33.0204 46.2168 32.4204 45.5168C31.7204 44.6168 30.7205 46.1169 30.0205 45.3169C29.4205 47.0169 30.0205 49.3167 29.0205 49.4167C27.9205 49.5167 28.0205 51.4169 29.3205 51.1169C30.2205 50.9169 29.9204 51.4169 31.4204 53.8169C32.2204 55.0169 32.8206 56.5168 32.1206 58.0168C31.9206 58.6168 31.9204 58.8169 32.4204 59.1169C33.3204 59.7169 35.0206 60.517 35.6206 59.717C37.0206 57.817 35.7205 58.0168 35.8205 56.5168C36.0205 54.3168 33.9205 56.5169 32.8205 54.6169Z" fill="#23282C"/>
<path d="M170.42 118.917C172.22 122.617 176.32 120.517 176.02 118.117C175.72 115.817 176.12 113.517 176.42 111.317C176.52 110.817 176.82 110.617 177.32 110.417C178.52 110.017 178.02 108.517 176.92 108.817C175.62 109.117 174.42 106.617 173.82 105.317C173.62 104.917 173.521 104.917 173.121 105.017C169.721 106.717 167.721 104.617 167.621 106.017C167.421 108.517 167.421 111.017 168.621 113.217C169.521 114.917 172.22 115.617 174.02 114.817C174.22 114.717 174.52 114.517 174.92 114.517C173.52 116.717 171.12 114.717 171.42 116.517C171.52 117.017 171.52 117.617 171.22 118.217C170.02 116.217 169.92 118.317 163.52 115.217C162.92 114.917 162.92 114.517 163.42 114.117C165.82 112.417 166.42 109.617 166.72 106.717C166.82 105.717 166.82 105.017 165.82 104.217C164.12 102.917 164.42 100.517 166.22 99.317C170.12 96.917 175.42 99.317 176.02 101.617C176.72 104.017 178.221 101.117 180.121 105.017C181.421 107.817 180.12 111.517 182.32 115.417C183.12 116.717 179.221 117.317 177.621 117.417C177.321 117.417 176.92 117.117 176.82 117.617C176.72 118.017 177.12 118.117 177.42 118.217C182.32 120.517 182.42 120.317 182.22 120.817C181.92 121.317 181.82 121.217 177.32 118.717C176.92 118.517 176.721 118.417 176.621 119.017C176.021 122.617 169.82 121.917 170.42 118.917Z" fill="#23282C"/>
<path d="M163.42 121.417C163.12 121.517 162.72 121.717 162.52 121.317C162.12 120.317 176.92 116.117 163.42 121.417Z" fill="#23282C"/>
<path d="M172.121 112.517C171.921 112.517 171.62 112.517 171.52 112.317C171.42 112.017 171.72 112.017 171.92 111.917C172.62 111.717 172.32 110.817 172.92 110.917C173.42 111.017 173.321 112.317 172.121 112.517Z" fill="#23282C"/>
<path d="M170.621 108.816C170.621 109.516 170.42 109.817 170.22 110.117C169.92 110.717 170.72 110.517 170.72 110.917C170.32 111.217 169.82 110.917 169.52 110.617C169.22 110.417 169.421 110.316 170.621 108.816Z" fill="#23282C"/>
<path d="M168.62 107.117C168.32 107.117 167.92 107.317 167.92 106.817C167.92 106.017 169.62 106.117 169.62 106.717C169.52 107.317 168.92 107.017 168.62 107.117Z" fill="#23282C"/>
<path d="M172.821 106.217C174.121 106.417 173.72 107.317 173.22 107.117C172.82 106.917 172.12 107.317 171.92 106.717C171.82 106.317 172.421 106.217 172.821 106.217Z" fill="#23282C"/>
<path d="M169.02 108.817C168.92 109.517 168.12 109.517 168.12 108.717C168.12 108.017 168.92 108.017 169.02 108.817Z" fill="#23282C"/>
<path d="M173.621 108.717C173.621 109.517 172.821 109.517 172.821 108.717C172.721 108.017 173.521 107.917 173.621 108.717Z" fill="#23282C"/>
<path d="M13.8205 114.718C14.4205 114.918 14.6203 115.418 14.9203 115.718C18.1203 119.218 24.3204 117.117 22.7204 106.917C22.6204 106.217 21.7204 106.017 21.5204 105.117C20.9204 106.717 18.6204 105.818 19.5204 105.218C20.3204 104.618 21.2205 105.617 21.3205 105.117C21.3205 104.917 21.1205 103.717 20.6205 104.017C18.6205 105.217 16.4204 105.217 14.2204 104.817C13.7204 104.717 13.7204 105.117 13.7204 105.417C13.5204 106.717 12.6203 109.917 10.9203 110.317C9.2203 110.717 9.5203 113.117 11.4203 113.017C13.0203 112.917 12.5204 112.917 13.0204 118.317C13.2204 120.717 16.9204 122.417 18.7204 119.817C18.8204 119.617 18.9204 119.317 19.2204 119.317C18.9204 122.517 14.6204 122.717 13.2204 120.317C12.8204 119.517 12.3204 119.717 11.7204 120.117C10.6204 120.917 9.4204 121.317 8.2204 121.917C8.0204 122.017 7.6203 122.217 7.4203 121.917C7.2203 121.617 7.6205 121.418 7.8205 121.218C10.2205 119.318 12.6205 119.817 12.3205 118.117C11.7205 114.217 12.5205 113.417 11.3205 113.517C9.6205 113.717 8.7205 112.517 9.3205 110.917C9.4205 110.517 9.4204 110.317 9.2204 110.017C7.2204 105.317 9.0205 100.617 14.1205 99.417C18.4205 98.417 23.5204 101.117 23.5204 106.117C23.5204 112.317 23.4205 119.617 16.3205 117.817C15.0205 117.517 13.9205 116.118 13.8205 114.718Z" fill="#23282C"/>
<path d="M20.4203 119.416C21.1203 119.616 25.9204 121.016 25.5204 121.816C25.3204 122.216 25.4204 122.116 20.2204 120.016C20.0204 119.916 19.7203 119.817 19.9203 119.617C19.9203 119.317 20.2203 119.416 20.4203 119.416Z" fill="#23282C"/>
<path d="M18.4202 108.117C19.8202 111.417 20.1202 111.417 18.9202 112.017C18.4202 112.217 18.2204 111.717 18.6204 111.517C19.6204 110.917 17.3202 108.517 18.4202 108.117Z" fill="#23282C"/>
<path d="M15.8203 112.917C16.4203 113.417 16.9203 114.017 17.8203 113.617C17.9203 113.517 18.1204 113.617 18.1204 113.817C17.9204 114.817 15.7203 114.517 15.8203 112.917Z" fill="#23282C"/>
<path d="M19.7203 107.917C20.9203 106.817 22.1204 108.017 21.8204 108.417C21.6204 108.617 21.5204 108.516 21.3204 108.316C20.9204 108.016 20.3203 108.017 19.7203 107.917Z" fill="#23282C"/>
<path d="M15.9204 108.717C15.9204 109.017 15.8204 108.917 14.4204 109.217C14.2204 109.217 13.9206 109.617 13.8206 109.217C13.6206 108.617 15.9204 107.917 15.9204 108.717Z" fill="#23282C"/>
<path d="M15.0204 106.217C15.3204 106.217 15.7205 106.217 15.6205 106.617C15.4205 107.117 14.8203 107.117 14.4203 107.217C13.8203 107.317 13.8204 106.317 15.0204 106.217Z" fill="#23282C"/>
<path d="M95.22 13.1172C95.72 14.4172 94.3203 16.0171 96.02 16.3171C95.32 16.7171 94.9204 16.6171 94.6204 16.0171C94.5204 15.6171 95.02 13.6172 95.22 13.1172Z" fill="#23282C"/>
<path d="M97.52 11.3169C98.72 11.4169 98.62 12.4168 98.02 12.2168C97.62 12.1168 97.02 12.2169 97.02 11.6169C96.92 11.3169 97.22 11.3169 97.52 11.3169Z" fill="#23282C"/>
<path d="M93.9203 11.8172C93.7203 12.4172 92.5205 12.8172 92.6205 12.1172C92.6205 11.4172 93.7203 11.2172 93.9203 11.8172Z" fill="#23282C"/>
<path d="M93.7203 14.4167C93.5203 15.2167 92.6203 14.9168 92.7203 14.2168C92.9203 13.6168 93.8203 13.6167 93.7203 14.4167Z" fill="#23282C"/>
<path d="M97.62 17.5171C97.22 18.5171 96.12 18.117 96.32 17.917C96.72 17.617 97.12 17.417 97.52 17.217C97.62 17.117 97.72 17.3171 97.62 17.5171Z" fill="#23282C"/>
<path d="M97.92 14.2171C97.82 14.8171 97.12 14.7171 97.12 14.2171C97.12 13.7171 97.92 13.6171 97.92 14.2171Z" fill="#23282C"/>
<path d="M34.9204 50.5171C35.6204 49.2171 34.1205 48.1172 34.8205 46.6172C35.6205 49.7172 36.2204 50.5171 34.9204 50.5171Z" fill="#23282C"/>
<path d="M32.7204 50.5166C33.2204 51.1166 33.6204 51.6165 34.4204 51.4165C33.9204 52.5165 32.6204 51.8166 32.7204 50.5166Z" fill="#23282C"/>
<path d="M31.2203 47.3169C31.5203 46.6169 32.9203 46.8169 32.7203 47.3169C32.5203 47.8169 32.0205 47.3168 31.6205 47.5168C31.5205 47.5168 31.2203 47.6169 31.2203 47.3169Z" fill="#23282C"/>
<path d="M37.2203 47.2167C37.0203 47.2167 36.7203 47.2167 36.7203 46.9167C36.7203 46.4167 37.7203 46.6168 37.7203 47.0168C37.7203 47.3168 37.4203 47.1167 37.2203 47.2167Z" fill="#23282C"/>
<path d="M168.82 47.3166C168.52 56.8166 159.82 63.0164 151.92 62.9164C136.02 62.8164 129.62 44.2166 140.62 34.6166C151.32 25.5166 169.22 32.2166 168.82 47.3166ZM155.52 31.8166C146.62 29.9166 137.82 35.6165 136.42 44.5165C134.72 54.8165 144.42 64.9164 157.12 60.9164C171.32 56.6164 171.52 35.1166 155.52 31.8166Z" fill="#60B9B3"/>
</g>
<defs>
<clipPath id="clip0_1_2">
<rect width="190" height="168" fill="white"/>
</clipPath>
</defs>
</svg>
