<svg width="48" height="56" viewBox="0 0 48 56" fill="none" xmlns="http://www.w3.org/2000/svg" class=" lazyloaded">
            <path d="M47.0711 14.4144C47.0042 12.9411 47.0042 11.5348 47.0042 10.1286C47.0042 8.99014 46.1336 8.11958 44.9952 8.11958C36.6245 8.11958 30.2628 5.70882 24.9725 0.552466C24.1689 -0.184155 22.9635 -0.184155 22.1599 0.552466C16.8696 5.70882 10.5079 8.11958 2.1372 8.11958C0.998789 8.11958 0.128236 8.99014 0.128236 10.1286C0.128236 11.5348 0.128236 12.9411 0.0612705 14.4144C-0.206592 28.4771 -0.608387 47.7632 22.8965 55.8661L23.5662 56L24.2359 55.8661C47.6738 47.7632 47.339 28.5441 47.0711 14.4144ZM21.959 33.9013C21.5572 34.2362 21.0885 34.4371 20.5528 34.4371H20.4858C19.9501 34.4371 19.4143 34.1692 19.0795 33.7674L12.8517 26.87L15.8652 24.1913L20.7536 29.6155L31.6021 19.3028L34.3477 22.2493L21.959 33.9013Z" fill="#5BC014"></path>
        </svg>