<?xml version="1.0" encoding="UTF-8"?>
<svg xmlns="http://www.w3.org/2000/svg" height="512pt" viewBox="-6 0 512 512" width="512pt">
  <path d="m484.507812 0h-469.015624c-8.285157 0-15.492188 6.714844-15.492188 15v229.730469c0 80.863281 44.179688 155.453125 114.902344 194.660156l127.703125 70.726563c2.261719 1.253906 4.828125 1.882812 7.332031 1.882812 2.507812 0 5.042969-.628906 7.304688-1.882812l127.84375-70.726563c70.71875-39.207031 114.914062-113.796875 114.914062-194.660156v-229.730469c0-8.285156-7.207031-15-15.492188-15zm0 0" fill="#f5f5f5"></path>
  <path d="m484.507812 0h-234.507812l-.0625 512c2.507812 0 5.042969-.628906 7.304688-1.882812l127.84375-70.726563c70.71875-39.207031 114.914062-113.796875 114.914062-194.660156v-229.730469c0-8.285156-7.207031-15-15.492188-15zm0 0" fill="#afc3c9"></path>
  <path d="m176.214844 151.6875c-7.664063-3.15625-16.425782.5-19.582032 8.160156l-24.375 59.195313-24.378906-59.195313c-3.15625-7.660156-11.925781-11.3125-19.582031-8.160156-7.660156 3.15625-11.3125 11.921875-8.160156 19.582031l38.25 92.875c2.3125 5.621094 7.792969 9.289063 13.871093 9.289063 6.078126 0 11.554688-3.667969 13.867188-9.289063l38.25-92.875c3.152344-7.660156-.5-16.425781-8.160156-19.582031zm0 0" fill="#ef3a3a"></path>
  <path d="m265.027344 151h-53.273438c-8.285156 0-14.753906 6.273438-14.753906 14.558594v92.875c0 8.285156 6.714844 15 15 15s15-6.714844 15-15v-31.433594h38.027344c21.074218 0 38.21875-16.925781 38.21875-38s-17.140625-38-38.21875-38zm0 46h-38.027344v-16h38.027344c4.535156 0 8.21875 3.46875 8.21875 8s-3.683594 8-8.21875 8zm0 0" fill="#ef3a3a"></path>
  <g fill="#c23030">
    <path d="m265.027344 151h-14.957032l-.011718 30h14.96875c4.535156 0 8.21875 3.46875 8.21875 8s-3.683594 8-8.21875 8h-14.976563l-.011719 30h14.988282c21.074218 0 38.21875-16.925781 38.21875-38s-17.140625-38-38.21875-38zm0 0"></path>
    <path d="m406 150.558594c-8.285156 0-15 6.714844-15 15v51.070312l-49.921875-60.605468c-4.023437-4.886719-10.9375-6.722657-16.894531-4.585938-5.960938 2.140625-10.183594 7.789062-10.183594 14.121094v92.875c0 8.285156 6.714844 15 15 15 8.28125 0 15-6.714844 15-15v-51.070313l50.164062 60.605469c2.90625 3.527344 7.308594 5.464844 11.707032 5.464844 1.691406 0 3.472656-.285156 5.125-.878906 5.960937-2.140626 10-7.789063 10-14.121094v-92.875c.003906-8.285156-6.710938-15-14.996094-15zm0 0"></path>
  </g>
</svg>
