<svg xmlns="http://www.w3.org/2000/svg" clip-rule="evenodd" fill-rule="evenodd" viewBox="0 0 2.54002 2.54002"><g id="&#x56FE;&#x5C42;_x0020_1" fill="#191919"><path d="m1.27001 0c-.35062 0-.66814.14219-.89798.37203s-.37203.54736-.37203.89798.14219.66814.37203.89798.54736.37203.89798.37203.66814-.14219.89798-.37203.37203-.54736.37203-.89798-.14219-.66814-.37203-.89798-.54736-.37203-.89798-.37203zm-.83812.43189c.2145-.2145.51085-.34721.83812-.34721s.62362.13271.83812.34721.34721.51085.34721.83812-.13271.62362-.34721.83812-.51085.34721-.83812.34721-.62362-.13271-.83812-.34721-.34721-.51085-.34721-.83812.13271-.62362.34721-.83812z" fill-rule="nonzero"></path><path d="m1.22767.5415v.00011.00011.00011.00011.00011.00011.00011.35819.36625c-.00009.00114-.00014.00228-.00014.00344v.00001c0 .02319.01902.04233.04233.04233h.37805.35076.03119c.02311 0 .04207-.01869.04233-.04184s-.01829-.0425-.04146-.04281c-.0004 0-.00133-.00002-.00176-.00002h-.03042-.00011-.00011-.00011-.00011-.00011-.00011-.00011-.34987-.33557v-.32736-.35908-.03119c0-.02314-.01869-.04207-.04184-.04233s-.04247.01829-.04281.04146c0 .00043-.00002.00133-.00002.00176v.03042z"></path></g></svg>