<svg id="Layer_1" data-name="Layer 1" xmlns="http://www.w3.org/2000/svg" viewBox="0 0 180.25 249.13"><defs><style>.cls-1{fill:none;stroke:#000;stroke-linecap:round;stroke-miterlimit:10;stroke-width:4px;}</style></defs><circle class="cls-1" cx="91.12" cy="43.77" r="20.33"/><path class="cls-1" d="M86.28,28.88V10.35a5,5,0,0,1,5-5H99a5,5,0,0,1,5,5V28.74" transform="translate(-4.05 -3.32)"/><path class="cls-1" d="M75.21,51,25.71,218.05a6.14,6.14,0,0,0,4.13,7.62l2.06.61,3.13.92a6.14,6.14,0,0,0,7.62-4.14L89.05,66.48" transform="translate(-4.05 -3.32)"/><line class="cls-1" x1="27.85" y1="222.96" x2="19.92" y2="247.13"/><path class="cls-1" d="M115.13,51l49.51,167.06a6.14,6.14,0,0,1-4.14,7.62l-2.06.61-3.12.92a6.13,6.13,0,0,1-7.62-4.14L101.3,66.48" transform="translate(-4.05 -3.32)"/><line class="cls-1" x1="154.39" y1="222.96" x2="162.33" y2="247.13"/><path class="cls-1" d="M6.05,112.62s30,44.55,88.55,44,87.69-44,87.69-44" transform="translate(-4.05 -3.32)"/><line class="cls-1" x1="90.12" y1="120.34" x2="90.12" y2="187.88"/></svg>