<svg xmlns="http://www.w3.org/2000/svg" fill="none" height="512" viewBox="0 0 24 24" width="512"><path d="m10 3h-6c-.26522 0-.51957.10536-.70711.29289-.18753.18754-.29289.44189-.29289.70711v6c0 .2652.10536.5196.29289.7071.18754.1875.44189.2929.70711.2929h6c.2652 0 .5196-.1054.7071-.2929s.2929-.4419.2929-.7071v-6c0-.26522-.1054-.51957-.2929-.70711-.1875-.18753-.4419-.29289-.7071-.29289zm10 0h-6c-.2652 0-.5196.10536-.7071.29289-.1875.18754-.2929.44189-.2929.70711v6c0 .2652.1054.5196.2929.7071s.4419.2929.7071.2929h6c.2652 0 .5196-.1054.7071-.2929s.2929-.4419.2929-.7071v-6c0-.26522-.1054-.51957-.2929-.70711-.1875-.18753-.4419-.29289-.7071-.29289zm-10 10h-6c-.26522 0-.51957.1054-.70711.2929-.18753.1875-.29289.4419-.29289.7071v6c0 .2652.10536.5196.29289.7071.18754.1875.44189.2929.70711.2929h6c.2652 0 .5196-.1054.7071-.2929s.2929-.4419.2929-.7071v-6c0-.2652-.1054-.5196-.2929-.7071s-.4419-.2929-.7071-.2929zm8 1h-2v2h-2v2h2v2h2v-2h2v-2h-2z" fill="rgb(0,0,0)"></path></svg>