<svg xmlns="http://www.w3.org/2000/svg" id="Layer_1" data-name="Layer 1" viewBox="0 0 328.1 360.96"><path d="M246.76,213.14a2.12,2.12,0,0,1-.83-.16L84.1,148.16a2.26,2.26,0,0,1-1.41-2.09A2.24,2.24,0,0,1,84.1,144l40.5-16.23a2.25,2.25,0,1,1,1.67,4.17L91,146.07l155.78,62.4,39.66-15.89a2.25,2.25,0,0,1,1.67,4.17L247.59,213A2.15,2.15,0,0,1,246.76,213.14Z" transform="translate(-82.69 -79)"></path><path d="M368,164.54a2.25,2.25,0,0,1-.83-4.33l35.29-14.14L246.76,83.67,207.22,99.49a2.26,2.26,0,0,1-2.6-.52,2.21,2.21,0,0,1,.13-3.16,2.46,2.46,0,0,1,.72-.46l40.46-16.19a2.27,2.27,0,0,1,1.66,0L409.37,144a2.24,2.24,0,0,1,1.41,2.08,2.26,2.26,0,0,1-1.41,2.09l-40.5,16.22A2.28,2.28,0,0,1,368,164.54Z" transform="translate(-82.69 -79)"></path><path d="M246.74,440a2.28,2.28,0,0,1-.92-.2L84,366.85a2.26,2.26,0,0,1-1.33-2.05V146.06A2.26,2.26,0,0,1,85.78,144l161.8,64.81a2.26,2.26,0,0,1,1.41,2.09V437.71a2.27,2.27,0,0,1-1,1.89A2.31,2.31,0,0,1,246.74,440ZM87.19,363.34l157.3,70.89V212.39l-157.3-63Z" transform="translate(-82.69 -79)"></path><path d="M287.26,421.7a2.24,2.24,0,0,1-2.24-2.24V195.73L124.61,131.92a2.24,2.24,0,0,1,1.66-4.16l161.82,64.37a2.25,2.25,0,0,1,1.41,2.08V419.46A2.24,2.24,0,0,1,287.26,421.7Z" transform="translate(-82.69 -79)"></path><path d="M368.12,385.18a2.13,2.13,0,0,1-.89-.19L286.36,349.3a2.22,2.22,0,0,1,1.8-4.06l77.74,34.31V162.42L208.57,100.7V162a2.23,2.23,0,0,1-4.45,0V97.43a2.24,2.24,0,0,1,3-2.07l161.78,63.47a2.24,2.24,0,0,1,1.41,2.07V383a2.22,2.22,0,0,1-2.23,2.22Z" transform="translate(-82.69 -79)"></path><path d="M368.16,385.24a2.24,2.24,0,0,1-.93-4.29l39.06-17.61V146.06a2.25,2.25,0,0,1,4.5,0V364.8a2.26,2.26,0,0,1-1.33,2.05l-40.38,18.2A2.3,2.3,0,0,1,368.16,385.24Z" transform="translate(-82.69 -79)"></path><path d="M246.74,440a2.25,2.25,0,0,1-.92-4.3l40.5-18.25a2.25,2.25,0,0,1,1.85,4.1l-40.51,18.25A2.15,2.15,0,0,1,246.74,440Z" transform="translate(-82.69 -79)"></path></svg>