<svg id="Layer_1" data-name="Layer 1" xmlns="http://www.w3.org/2000/svg" viewBox="0 0 126.48 212.31"><defs><style>.cls-1{fill:none;stroke:#000}</style></defs><path class="cls-1" d="M144,208.3H32.84a5.67,5.67,0,0,1-5.68-5.67V25a5.68,5.68,0,0,1,5.68-5.68H144A5.67,5.67,0,0,1,149.64,25V202.63A5.67,5.67,0,0,1,144,208.3Z" transform="translate(-25.16 -17.3)"/><line class="cls-1" x1="63.24" y1="2" x2="63.24" y2="191"/><line class="cls-1" x1="41.07" y1="84.57" x2="41.07" y2="105.24"/><line class="cls-1" x1="85.41" y1="84.57" x2="85.41" y2="105.24"/><path class="cls-1" d="M51.39,208.3v15.4a3.91,3.91,0,0,1-3.91,3.91H41.61a3.91,3.91,0,0,1-3.91-3.91V208.3" transform="translate(-25.16 -17.3)"/><path class="cls-1" d="M139.11,208.3v15.4a3.91,3.91,0,0,1-3.91,3.91h-5.87a3.91,3.91,0,0,1-3.91-3.91V208.3" transform="translate(-25.16 -17.3)"/></svg>