<svg xmlns="http://www.w3.org/2000/svg" height="512" viewBox="0 0 64 64" width="512"><g id="Pin"><path d="m32 13a11 11 0 1 0 11 11 11.0125 11.0125 0 0 0 -11-11zm0 20a9 9 0 1 1 9-9 9.01 9.01 0 0 1 -9 9z"></path><path d="m32 0a24.0275 24.0275 0 0 0 -24 24c0 17.229 22.3574 38.8125 23.3086 39.7227a1.0006 1.0006 0 0 0 1.3828 0c.9512-.9102 23.3086-22.4937 23.3086-39.7227a24.0275 24.0275 0 0 0 -24-24zm0 61.5942c-3.8057-3.8183-22-22.8501-22-37.5942a22 22 0 0 1 44 0c0 14.7368-18.1943 33.7744-22 37.5942z"></path></g></svg>