<svg xmlns="http://www.w3.org/2000/svg" id="Layer_2" height="512" viewBox="0 0 32 32" width="512"><path d="m18 19c0 1.767-1.233 3-3 3-1.654 0-3-1.346-3-3s1.346-3 3-3 3 1.346 3 3zm-16-11v-3c0-1.654 1.346-3 3-3h22c1.654 0 3 1.346 3 3v3zm22-3c0 .552.448 1 1 1s1-.448 1-1-.448-1-1-1-1 .448-1 1zm-4 0c0 .552.448 1 1 1s1-.448 1-1-.448-1-1-1-1 .448-1 1zm10 5v17c0 1.654-1.346 3-3 3h-22c-1.654 0-3-1.346-3-3v-17zm-9.293 14.293-1.952-1.951c.773-.874 1.245-2.027 1.245-3.342 0-2.757-2.243-5-5-5s-5 2.243-5 5 2.243 5 5 5c.773 0 1.487-.169 2.128-.457l2.165 2.164c.195.195.451.293.707.293s.512-.098.707-.293c.391-.391.391-1.024 0-1.414z"></path></svg>