<svg xmlns="http://www.w3.org/2000/svg" id="Layer_1" height="512" viewBox="0 0 512 512" width="512" data-name="Layer 1"><path d="m256 457.477a290.932 290.932 0 0 0 45.069-3.492c21.338 20.379 59.911 43.453 125.142 43.453 20.965 0 44.672-2.381 71.461-8 0 0-55.76-36.777-75.441-86.232 53.453-40.6 87.25-100.445 87.25-167.186 0-122.308-113.487-221.458-253.481-221.458s-253.481 99.15-253.481 221.458 113.487 221.457 253.481 221.457zm-240.609-221.457a183.562 183.562 0 0 1 18.633-80.592c12.009-24.806 29.237-47.115 51.207-66.309a244.583 244.583 0 0 1 76.564-45.079 275.513 275.513 0 0 1 188.41 0 244.583 244.583 0 0 1 76.564 45.079c21.97 19.194 39.2 41.5 51.207 66.309a183.749 183.749 0 0 1 -3.433 167.931c-14.039 26.33-34.821 50.4-60.1 69.6l-7.792 5.918 3.618 9.092c12.444 31.268 37.612 57.379 56.492 73.754a306.452 306.452 0 0 1 -40.552 2.846c-61.564 0-97.2-21.692-116.251-39.89l-4.6-4.393-6.284.985a278.881 278.881 0 0 1 -43.074 3.334 270.855 270.855 0 0 1 -94.205-16.605 244.567 244.567 0 0 1 -76.564-45.08c-21.97-19.194-39.2-41.5-51.207-66.308a183.562 183.562 0 0 1 -18.633-80.592z"></path></svg>