<svg id="Layer_1" data-name="Layer 1" xmlns="http://www.w3.org/2000/svg" viewBox="0 0 136.31 257.15"><defs><style>.cls-1{fill:none;stroke:#000}</style></defs><line class="cls-1" x1="68.15" y1="57.63" x2="68.15" y2="253.69"/><path class="cls-1" d="M97.74,73S97.44,90.25,79.3,92.5" transform="translate(-11.14 -0.63)"/><path class="cls-1" d="M53.35,91.62S52.28,116.4,79.3,117.18" transform="translate(-11.14 -0.63)"/><path class="cls-1" d="M39.06,128.2s5.56,39.65,40.24,39.65" transform="translate(-11.14 -0.63)"/><path class="cls-1" d="M111.93,117.18s-3.08,31.5-32.63,31.94" transform="translate(-11.14 -0.63)"/><path class="cls-1" d="M79.3,2.66S61.74.91,46.82,25.49s-83.4,161.82,32.48,170.3" transform="translate(-11.14 -0.63)"/><path class="cls-1" d="M79.3,2.66S96.86.91,111.78,25.49s83.4,161.82-32.48,170.3" transform="translate(-11.14 -0.63)"/><line class="cls-1" x1="10.8" y1="255.15" x2="125.51" y2="255.15"/></svg>