<svg xmlns="http://www.w3.org/2000/svg" height="512" viewBox="0 0 64 64" width="512"><g id="implant" fill="rgb(0,0,0)"><path d="m36.32 3.7c-6.45 2.3-8.48-1.15-13.88-.65-9.9.92-15.06 13-8.57 21 1.22 1.52 2.14 6.25 2.78 8.1a4.29 4.29 0 0 0 4 2.83h22.66a4.29 4.29 0 0 0 4-2.83c.64-1.85 1.56-6.58 2.78-8.1 8.03-9.92-1.8-24.56-13.77-20.35zm5.44 4.35a20.58 20.58 0 0 1 -9.76 2.67 20.58 20.58 0 0 1 -9.76-2.67 1 1 0 0 1 1-1.7c6.32 3.16 11.12 3.16 17.44 0a1 1 0 0 1 1.08 1.7z"></path><path d="m28.05 61h7.95l1.22-2.33-11-1.3c.51 1.11 1.12 2.27 1.83 3.63z"></path><path d="m43.09 40-1.35-.12.2-2.88h-19.88l.07 1.1-1-.1a1 1 0 0 0 -.18 2l22 2a1 1 0 0 0 .14-2z"></path><path d="m43.09 45-1.69-.15.07-1-19.06-1.71.07 1-1.39-.14a1 1 0 0 0 -.18 2l22 2a1 1 0 0 0 .18-2z"></path><path d="m42.1 50-1-.1.07-1.06-18.41-1.67.06.91-.72-.08a1 1 0 0 0 -.2 2l20 2a1 1 0 0 0 .2-2z"></path><path d="m40.12 55-1-.12.58-1.11-16.29-1.62.49 1-.78-.15a1 1 0 0 0 -.24 2l17 2a1 1 0 0 0 .24-2z"></path></g></svg>