<svg xmlns="http://www.w3.org/2000/svg" id="Layer_1" height="512" viewBox="0 0 48 48" width="512"><g><path d="m39.73337 31.60245c3.39394 0 6.14785-2.76367 6.14785-6.1479v-19.30665c-.00001-3.39393-2.75391-6.1479-6.14785-6.1479h-31.46668c-3.38423 0-6.1479 2.75397-6.1479 6.1479v19.30664c0 3.38423 2.76367 6.1479 6.1479 6.1479h4.67395v1.2703c0 1.25089-1.00852 2.26906-2.25941 2.26906h-2.64726c-2.66667 0-4.82913 2.15276-4.82913 4.80972 0 1.28971.50426 2.50183 1.41578 3.41335s2.12364 1.41572 3.41335 1.41572h5.48846c.25213.6788.92122 1.15394 1.68726 1.15394h1.37701v.05818c0 1.10547.90181 2.00728 2.01693 2.00728h1.37701c.74663 0 1.35754-.61091 1.35754-1.35754v-5.03273c0-.74669-.61091-1.3576-1.35754-1.3576h-1.37701c-1.11512 0-2.01693.90181-2.01693 2.00728v.05818h-1.37701c-.70786 0-1.32848.40726-1.61938 1.00846h-5.55634c-.90181 0-1.74544-.34908-2.38548-.98905-.63997-.64003-.98911-1.48367-.98911-2.38548 0-1.85215 1.51272-3.35517 3.37459-3.35517h2.64725c2.04605 0 3.71396-1.66785 3.71396-3.72361v-1.2703h19.20969v1.2703c0 2.05576 1.67756 3.72361 3.7236 3.72361h2.64731c1.8618 0 3.37453 1.50302 3.37453 3.35517 0 .90181-.34908 1.74544-.98911 2.38548-.63997.63998-1.49331.98905-2.38542.98905h-5.5564c-.2909-.60121-.91151-1.00846-1.61938-1.00846h-1.38666v-.05818c0-1.10547-.90181-2.00728-2.00728-2.00728h-1.37695c-.74669 0-1.3576.61091-1.3576 1.3576v5.03273c0 .74663.61091 1.35754 1.3576 1.35754h1.37695c1.10547 0 2.00728-.90181 2.00728-2.00728v-.05818h1.38666c.76604 0 1.43513-.47514 1.68726-1.15394h5.48852c1.28965 0 2.49213-.5042 3.4133-1.41572.91151-.91152 1.41578-2.12364 1.41578-3.41335 0-2.65696-2.16241-4.80972-4.82907-4.80972h-2.64731c-1.25089 0-2.26906-1.01817-2.26906-2.26906v-1.2703h4.67395zm1.49331-15.80611c0 .40732-.32966.72727-.72727.72727h-3.69454c-.39755 0-.72728-.31996-.72728-.72727 0-.39755.32972-.72727.72728-.72727h3.69454c.39761 0 .72727.32972.72727.72727zm-2.77332-8.65938c1.30907 0 2.38542 1.07641 2.38542 2.40489 0 1.30907-1.07635 2.37571-2.38542 2.37571-1.32848 0-2.38548-1.06664-2.38548-2.37571.00001-1.32849 1.057-2.40489 2.38548-2.40489zm0 12.53817c1.30907 0 2.38542 1.07641 2.38542 2.39518s-1.07635 2.38548-2.38542 2.38548c-1.32848 0-2.38548-1.0667-2.38548-2.38548s1.057-2.39518 2.38548-2.39518zm-6.18667 3.3067c0 1.74544-1.41578 3.15151-3.15151 3.15151h-18.40483c-1.7455 0-3.16122-1.41578-3.16122-3.16122l.03876-14.36121c.00971-1.74544 1.42549-3.15151 3.17093-3.1418l18.40483.04847c1.73573.00971 3.15151 1.42549 3.14181 3.17093z"></path><path d="m29.15394 6.97212-18.39512-.04847-.01941-1.45455v1.45455c-.93093 0-1.68726.75633-1.69697 1.69697l-.03877 14.3515c0 .94064.76604 1.70668 1.70668 1.70668h18.40483c.93093 0 1.69697-.75639 1.69697-1.69697l.03877-14.29332c-.00001-.94064-.75634-1.70668-1.69698-1.71639zm-1.24118 9.08606h-3.45212c-.31031 0-.58185-.19395-.68851-.48485l-.92122-2.68608-2.00728 7.56368c-.07753.31031-.34908.52361-.65939.54303h-.03877c-.3006 0-.57215-.18424-.68851-.46549l-2.85091-7.43756-1.68726 2.74426c-.12607.22301-.36849.34908-.62062.34908h-2.35636c-.39755 0-.72727-.32002-.72727-.72727 0-.39755.32972-.72727.72727-.72727h1.9491l2.24-3.65578c.14548-.23272.41696-.35878.68851-.33937.27148.01941.51391.20366.61091.46544l2.57937 6.71035 2.0364-7.68975c.08724-.31025.35878-.53332.67874-.54303.34914-.03877.61091.18424.71763.48485l1.54178 4.44123h2.9285c.40726 0 .72727.32972.72727.72727.00001.40724-.32.72726-.72726.72726z"></path><path d="m29.15394 6.97212-18.39512-.04847-.01941-1.45455v1.45455c-.93093 0-1.68726.75633-1.69697 1.69697l-.03877 14.3515c0 .94064.76604 1.70668 1.70668 1.70668h18.40483c.93093 0 1.69697-.75639 1.69697-1.69697l.03877-14.29332c-.00001-.94064-.75634-1.70668-1.69698-1.71639zm-1.24118 9.08606h-3.45212c-.31031 0-.58185-.19395-.68851-.48485l-.92122-2.68608-2.00728 7.56368c-.07753.31031-.34908.52361-.65939.54303h-.03877c-.3006 0-.57215-.18424-.68851-.46549l-2.85091-7.43756-1.68726 2.74426c-.12607.22301-.36849.34908-.62062.34908h-2.35636c-.39755 0-.72727-.32002-.72727-.72727 0-.39755.32972-.72727.72727-.72727h1.9491l2.24-3.65578c.14548-.23272.41696-.35878.68851-.33937.27148.01941.51391.20366.61091.46544l2.57937 6.71035 2.0364-7.68975c.08724-.31025.35878-.53332.67874-.54303.34914-.03877.61091.18424.71763.48485l1.54178 4.44123h2.9285c.40726 0 .72727.32972.72727.72727.00001.40724-.32.72726-.72726.72726z"></path></g></svg>