<svg xmlns="http://www.w3.org/2000/svg" xmlns:xlink="http://www.w3.org/1999/xlink" id="Capa_1" x="0px" y="0px" viewBox="0 0 512.001 512" style="enable-background:new 0 0 512.001 512;" xml:space="preserve"><g>	<g>		<path d="M214.54,235.753c-14.839,21.754-14.003,45.786-10.885,72.592c26.805,3.118,50.837,3.955,72.592-10.885L214.54,235.753z"></path>	</g></g><g>	<g>		<path d="M308.345,203.655c-26.806-3.118-50.837-3.955-72.592,10.885l61.707,61.707   C312.299,254.493,311.463,230.461,308.345,203.655z"></path>	</g></g><g>	<g>		<path d="M472.522,39.478c-52.637-52.637-138.282-52.637-190.919,0L171.147,149.934l43.107,43.107   c29.039-22.279,60.681-22.892,90.445-19.948c-3.33-33.671-2.114-69.744,29.875-101.733l21.213,21.213   c-24.732,24.732-24.207,52.516-20.525,84.165c31.649,3.68,59.432,4.206,84.165-20.525l21.213,21.213   c-31.989,31.989-68.061,33.207-101.732,29.875c2.944,29.765,2.331,61.406-19.948,90.445l43.107,43.107l110.457-110.457   C525.159,177.76,525.159,92.114,472.522,39.478z"></path>	</g></g><g>	<g>		<path d="M297.747,318.959c-29.039,22.279-60.681,22.893-90.446,19.948c3.33,33.67,2.114,69.744-29.875,101.732l-21.213-21.213   c24.732-24.732,24.207-52.516,20.526-84.164c-31.65-3.679-59.432-4.207-84.165,20.525L71.36,334.574   c31.989-31.989,68.061-33.207,101.732-29.875c-2.944-29.765-2.331-61.406,19.948-90.445l-43.107-43.107L39.478,281.604   c-52.637,52.636-52.637,138.282,0,190.919c52.637,52.637,138.282,52.637,190.919,0l110.457-110.457L297.747,318.959z"></path>	</g></g><g></g><g></g><g></g><g></g><g></g><g></g><g></g><g></g><g></g><g></g><g></g><g></g><g></g><g></g><g></g></svg>