<svg xmlns="http://www.w3.org/2000/svg" xmlns:svg="http://www.w3.org/2000/svg" id="svg11425" height="512" viewBox="0 0 16.933333 16.933334" width="512"><g id="layer1" transform="translate(0 -280.067)"><path id="path13638" d="m8.456844 280.59477c-.03822.002-.07559.0118-.109554.0295 0 0-3.1421915 1.56734-7.0605515 2.08979-.1316461.0182-.2293859.13118-.2284095.26407v5.55418c0 3.40254 1.8628359 5.42086 3.6995152 6.54327 1.8366718 1.12241 3.6695438 1.39268 3.6695438 1.39268.02603.004.05251.004.07855 0 0 0 1.832871-.27027 3.669542-1.39268 1.83668-1.12241 3.699516-3.14073 3.699516-6.54327v-5.55418c.0011-.13289-.09676-.24589-.22841-.26407-3.91836-.52245-7.060551-2.08979-7.060551-2.08979-.03987-.0206-.08432-.0308-.12919-.0295zm.0098 3.17604c2.627119 0 4.761465 2.13434 4.761465 4.76146s-2.134346 4.76405-4.761465 4.76405c-2.6271198 0-4.761466-2.13693-4.761466-4.76405s2.1343462-4.76146 4.761466-4.76146zm-1.05885 2.38073v1.32447h-1.321886c-.146119-.00053-.2650303.11743-.265615.26355v1.58801c.0005291.14612.119496.26411.265615.26355h1.321885v1.32447c.000529.14632.119814.26439.266134.26355h1.585431c.146119.00053.265033-.11743.265618-.26355v-1.32447h1.3224c.146119.00053.265033-.11743.265616-.26355v-1.58801c-.00053-.14612-.119497-.26411-.265616-.26355h-1.3224v-1.32447c-.00053-.14612-.119497-.26411-.265618-.26355h-1.599126c-.149244.0133-.252547.12735-.252439.26355z"></path></g></svg>