<svg xmlns="http://www.w3.org/2000/svg" viewBox="0 0 24 24"><g id="Layer_2" data-name="Layer 2"><path d="m20.38 4.9a5.52 5.52 0 0 0 -6.85-.77l2.22 2.26a1 1 0 0 1 -.08 1.42 1 1 0 0 1 -.67.25 1 1 0 0 1 -.75-.33l-2.82-2.83a5.42 5.42 0 0 0 -1.38-1 5.54 5.54 0 0 0 -6.43 1 6.66 6.66 0 0 0 0 8.68c1.86 2 6.38 6.63 8.41 6.63 1.58 0 4.68-2.81 6.83-5 .54-.54 1-1 1.4-1.45l.15-.16a6.66 6.66 0 0 0 -.03-8.7zm-6.38 8.6h-1v1a1 1 0 0 1 -2 0v-1h-1a1 1 0 0 1 0-2h1v-1a1 1 0 0 1 2 0v1h1a1 1 0 0 1 0 2z"></path></g></svg>