<svg xmlns="http://www.w3.org/2000/svg" height="512" viewBox="0 0 64 64" width="512"><g id="_02-Hospital" data-name="02-Hospital"><path d="m44 23v6a1 1 0 0 1 -1 1h-7v7a1 1 0 0 1 -1 1h-6a1 1 0 0 1 -1-1v-7h-7a1 1 0 0 1 -1-1v-6a1 1 0 0 1 1-1h7v-7a1 1 0 0 1 1-1h6a1 1 0 0 1 1 1v7h7a1 1 0 0 1 1 1zm12 3c0 18.294-22.44971 35.09766-23.40576 35.8042a.99964.99964 0 0 1 -1.18848 0c-.95605-.70654-23.40576-17.5102-23.40576-35.8042a24 24 0 0 1 48 0zm-6 0a18 18 0 1 0 -18 18 18.02047 18.02047 0 0 0 18-18z"></path></g></svg>