<svg xmlns="http://www.w3.org/2000/svg" viewBox="0 0 20 20"><g id="Medical_Appointment" data-name="Medical Appointment"><path d="m8.25488 14.55957h-2.53613a1.50164 1.50164 0 0 1 -1.5-1.5v-5.44873h9.63379v.813a.5.5 0 0 0 1 0v-1.99806a2.50263 2.50263 0 0 0 -2.5-2.5h-.43654v-.46678a.5.5 0 0 0 -1 0v.4668h-3.7617v-.4668a.5.5 0 1 0 -1 0v.4668h-.43555a2.50263 2.50263 0 0 0 -2.5 2.5v6.63379a2.50263 2.50263 0 0 0 2.5 2.5h2.53613a.5.5 0 0 0 0-1zm-2.53613-9.63379h.43555v.4668a.5.5 0 0 0 1 0v-.4668h3.7617v.4668a.5.5 0 0 0 1 0v-.4668h.43652a1.50164 1.50164 0 0 1 1.5 1.5v.18506h-9.63377v-.18506a1.50164 1.50164 0 0 1 1.5-1.5zm9.96289 4.53516a.5.5 0 0 0 0 1 .1.1 0 0 1 .09961.09961v1.08445a1.4419 1.4419 0 1 1 -2.88379 0v-1.08445a.1.1 0 0 1 .09961-.09961.5.5 0 0 0 0-1 1.1007 1.1007 0 0 0 -1.09961 1.09961v1.08445a2.44551 2.44551 0 0 0 1.94238 2.39038v.34692a1.6587 1.6587 0 1 1 -3.31738 0v-.9633a1.28937 1.28937 0 1 0 -1-.0019v.96527a2.65869 2.65869 0 1 0 5.31738 0v-.34753a2.4461 2.4461 0 0 0 1.94141-2.38984v-1.08445a1.1007 1.1007 0 0 0 -1.09961-1.09961zm-5.65625 2.479a.2898.2898 0 1 1 -.29.28955.29.29 0 0 1 .29-.28955z"></path></g></svg>