<svg xmlns="http://www.w3.org/2000/svg" xmlns:xlink="http://www.w3.org/1999/xlink" id="Layer_1" x="0px" y="0px" viewBox="0 0 512 512" style="enable-background:new 0 0 512 512;" xml:space="preserve"><style type="text/css">	.st0{fill:#FFCC53;}	.st1{fill:#09243C;}</style><path class="st0" d="M464,278L286,466c0,0-102.2-135.1,21.4-200.8C307.4,265.2,407.7,214.1,464,278z"></path><path class="st1" d="M234.7,256c0,5.9-4.8,10.7-10.7,10.7H21.3v106.7c0,64.7,52.6,117.3,117.3,117.3c20.7,0,40.9-5.4,58.7-15.7 c5.1-3,11.6-1.2,14.6,3.9c3,5.1,1.2,11.6-3.9,14.6c-21,12.1-44.9,18.6-69.3,18.6C62.2,512,0,449.8,0,373.4V138.7 C0,62.2,62.2,0,138.7,0s138.7,62.2,138.7,138.7v64c0,5.9-4.8,10.7-10.7,10.7s-10.7-4.8-10.7-10.7v-64C256,74,203.4,21.3,138.7,21.3 S21.3,74,21.3,138.7v106.7H224C229.9,245.3,234.7,250.1,234.7,256z M512,373.3c0,76.5-62.2,138.7-138.7,138.7 s-138.7-62.2-138.7-138.7s62.2-138.7,138.7-138.7S512,296.9,512,373.3z M283.3,448.3l165.1-165.1c-20.4-17-46.5-27.2-75-27.2 C308.6,256,256,308.7,256,373.3C256,401.8,266.3,428,283.3,448.3L283.3,448.3z M490.7,373.3c0-28.5-10.3-54.6-27.3-75L298.3,463.4 c20.4,17,46.5,27.2,75,27.2C438,490.7,490.7,438,490.7,373.3z"></path></svg>