<svg xmlns="http://www.w3.org/2000/svg" viewBox="0 0 32 32"><g id="Grid" display="none"></g><g id="Star_Belt"></g><g id="Medal"></g><g id="Champion_Medal_1_"></g><g id="Trophy"></g><g id="Basketball_Trophy"></g><g id="Podium"></g><g id="Heart_Medal"></g><g id="Badge"></g><g id="Banner"></g><g id="Heart_Banner"></g><g id="Champion_Badge"></g><g id="Star_Medal"></g><g id="First_Medal"></g><g id="Second_Medal"></g><g id="Third_Medal"></g><g id="Shield"><path d="m26.32 9.317c-.006-.372-.219-.704-.551-.872l-9.32-4.683c-.282-.142-.615-.142-.898 0l-9.32 4.683c-.333.168-.545.5-.551.872-.043 2.683.395 13.5 9.983 16.758.214.073.459.073.673 0 9.589-3.258 10.027-14.075 9.984-16.758zm-6.005 4.676-1.498 1.46c-.141.138-.206.336-.172.53l.354 2.061c.084.489-.429.862-.869.631l-1.851-.973c-.174-.092-.383-.092-.557 0l-1.851.973c-.439.231-.952-.142-.869-.631l.354-2.061c.033-.194-.031-.392-.172-.53l-1.498-1.46c-.355-.346-.159-.95.332-1.021l2.07-.301c.195-.028.364-.151.451-.328l.926-1.875c.22-.445.854-.445 1.074 0l.926 1.875c.087.177.256.299.451.328l2.07.301c.488.072.684.675.329 1.021z"></path><path d="m25.955 19.615c-.967 1.998-2.292 3.829-4.038 5.322l3.402 3.402 1.27-3.4 3.411-1.279z"></path><path d="m6.045 19.615-4.045 4.045 3.41 1.28 1.27 3.4 3.402-3.402c-1.745-1.493-3.07-3.324-4.037-5.323z"></path></g><g id="Certificate"></g><g id="Heart_Badge"></g><g id="Basketball_Champion"></g><g id="Basketball_Medal"></g><g id="Banner_1_"></g><g id="Police_Badge"></g><g id="Crown"></g><g id="Achievement"></g><g id="Heart_Shield"></g></svg>