<svg xmlns="http://www.w3.org/2000/svg" id="Line" height="512" viewBox="0 0 64 64" width="512"><path d="m38.77832 60a4.63371 4.63371 0 0 1 -4.62891-4.62891v-13.92578a2.17269 2.17269 0 0 0 -4.34522.00007v13.246a5.30837 5.30837 0 0 1 -10.29639 1.8164 271.43448 271.43448 0 0 0 -11.34325-26.94235c-5.08037-10.24825-1.46531-24.84395 13.64627-25.47181.0825-.1332 3.77125.0449 9.613 3.42882l4.79107-2.15428a14.88893 14.88893 0 0 1 14.35933 1.04493c4.07617 2.7705 6.43164 7.34961 6.999 13.60839.209.84473 1.03516 5.626-4.06933 14.42188-3.5756 5.92152-7.76219 16.53451-10.47066 22.75113a4.62392 4.62392 0 0 1 -4.25491 2.80551zm-6.79883-22.72754a4.19209 4.19209 0 0 1 4.16989 4.17288v13.92575a2.6361 2.6361 0 0 0 5.04591 1.03506l5.99026-13.98135a85.538 85.538 0 0 1 4.58789-8.98437c5.09363-8.81618 3.8495-12.909 3.81544-13.15724-.549-10.53306-9.05-17.14861-18.55586-13.08976l-3.11212 1.39934a14.82768 14.82768 0 0 0 3.042.64746.99936.99936 0 0 1 .88965 1.09864c-.1964 2.22791-6.43109-.46092-7.79541-1.29073-5.6251-3.12345-8.081-2.95022-8.3465-2.94915-6.72329.2897-11.11175 3.56352-12.99382 9.57692a17.46633 17.46633 0 0 0 1.392 13.30785 275.56619 275.56619 0 0 1 11.31852 26.946 3.3165 3.3165 0 0 0 6.37678-1.24242c.01384-.50725-.012-13.10349.00182-13.36205a4.19909 4.19909 0 0 1 4.17355-4.05283z" fill="rgb(0,0,0)"></path></svg>