<svg xmlns="http://www.w3.org/2000/svg" xmlns:xlink="http://www.w3.org/1999/xlink" id="Layer_1" x="0px" y="0px" viewBox="0 0 512 512" style="enable-background:new 0 0 512 512;" xml:space="preserve"><style type="text/css">	.st0{fill:#FFCC53;}	.st1{fill:#09243C;}</style><circle class="st0" cx="257" cy="129" r="116"></circle><path class="st1" d="M256,256c70.6,0,128-57.4,128-128S326.6,0,256,0S128,57.4,128,128S185.4,256,256,256z M256,21.3 c58.8,0,106.7,47.9,106.7,106.7S314.8,234.7,256,234.7S149.3,186.8,149.3,128S197.2,21.3,256,21.3z M256,298.7 c-105.9,0-192,86.1-192,192v10.7c0,5.9,4.8,10.7,10.7,10.7s10.7-4.8,10.7-10.7v-10.7c0-63,34.4-118,85.3-147.6v63.8 c-18.3,4.8-32,21.3-32,41.2c0,23.5,19.1,42.7,42.7,42.7S224,471.5,224,448c0-19.8-13.7-36.4-32-41.2v-74.3c19.8-8,41.4-12.6,64-12.6 s44.2,4.5,64,12.6v73.9c-24.3,4.9-42.7,26.5-42.7,52.2v42.7c0,5.9,4.8,10.7,10.7,10.7s10.7-4.8,10.7-10.7v-42.7 c0-17.6,14.4-32,32-32c17.6,0,32,14.4,32,32v42.7c0,5.9,4.8,10.7,10.7,10.7s10.7-4.8,10.7-10.7v-42.7c0-25.8-18.3-47.3-42.7-52.2 v-63.3c50.9,29.6,85.3,84.6,85.3,147.6v10.7c0,5.9,4.8,10.7,10.7,10.7s10.7-4.8,10.7-10.7v-10.7C448,384.8,361.9,298.7,256,298.7 L256,298.7z M202.7,448c0,11.8-9.6,21.3-21.3,21.3S160,459.8,160,448s9.6-21.3,21.3-21.3S202.7,436.2,202.7,448z"></path></svg>