<svg xmlns="http://www.w3.org/2000/svg" xmlns:xlink="http://www.w3.org/1999/xlink" id="Layer_1" x="0px" y="0px" viewBox="0 0 512 512" style="enable-background:new 0 0 512 512;" xml:space="preserve"><path d="M488.5,119.5c-4.3-4.3-10.7-6.4-14.9-2.1l-110.9,78.9l0-89.6c0-12.8-8.5-21.3-21.3-21.3H42.7c-12.8,0-21.3,8.5-21.3,21.3 v298.7c0,12.8,8.5,21.3,21.3,21.3h298.7c12.8,0,21.3-8.5,21.3-21.3v-89.6l110.9,76.8c2.1,2.1,4.3,2.1,6.4,2.1 c6.4,0,10.7-4.3,10.7-10.7V128C490.7,125.9,490.7,123.7,488.5,119.5z M112.6,236.8c31.1-0.2,56.2-25,56.1-55.3c0-1.1,0-2.3-0.1-3.4 l46.3-0.2c0,1.1,0.1,2.3,0.1,3.4c0.3,55.9-45.4,101.5-102.1,101.8L112.6,236.8z M269.9,274.2c-31.1,0-56.3,24.7-56.3,55 c0,1.1,0,2.3,0.1,3.4h-46.3c0-1.1-0.1-2.3-0.1-3.4c0-55.9,45.9-101.3,102.6-101.3V274.2z"></path></svg>