<svg id="Layer_1" enable-background="new 0 0 100 100" height="512" viewBox="0 0 100 100" width="512" xmlns="http://www.w3.org/2000/svg"><path d="m89.9990234 35.5878906-.0283203-.7714844c-.0361328-5.4658203-4.5234375-9.9125977-10.0039062-9.9125977h-13.0507202c.171936-.1846924.2733765-.4245605.2733765-.6777344 0-.1990356-.0759277-.3820801-.1848145-.5452271l2.763916-2.7643433c1.6972656-1.6972656 1.6972656-4.4589844 0-6.15625l-3.484375-3.4853516c-1.6982422-1.6982422-4.4609375-1.6962891-6.1572266 0l-2.7644653 2.7648315c-.3883667-.2581787-.9086304-.234314-1.2511597.1082153l-10.7560425 10.7558597h-18.3045044v-13.9038086c0-.5522461-.4472656-1-1-1h-7.4023438c-4.7685546 0-8.6484374 3.8696289-8.6484374 8.6264648l.000061.1314697c0 .0001221-.000061.0002442-.000061.0003663 0 .0004883.000061.0009155.000061.0014038l.0292358 55.312561c.0245361 3.8326416 2.2437744 7.2634888 5.6322632 8.9053345l-5.3646851 5.3119507c-.2880859.2851562-.3759766.7158203-.2216797 1.0908203s.5195314.6196289.9248048.6196289h50.875c.5527344 0 1-.4477539 1-1v-5.0146484h7.3349609v5.0146484c0 .5522461.4472656 1 1 1h8.75c5.5361329 0 10.0400391-4.4921875 10.0400391-10.0136719v-44.3618164c0-.0067749-.0037231-.0123291-.0038452-.019043-.0001221-.0061645.0031128-.0114135.0028686-.0175781zm-28.4580078-22.8989258c.9169922-.9165039 2.4101562-.918457 3.3291016 0l3.484375 3.4853516c.9169922.9174805.9169922 2.4106445 0 3.328125l-2.7371216 2.7374878-6.8134766-6.8134766zm-4.7226562 3.5800782 7.9570312 7.9570312-.9700317.9700317c-.0004883.0004883-.0010376.0010376-.0015259.0015259l-2.359314 2.3592529-7.9572144-7.9568481zm-31.4169312 44.1616821-4.7880859-4.7880859 1.7554932-4.4295654 7.4621582 7.4621582zm-6.9483032.6625366 1.3574829-3.4252319 3.5654297 3.5654297-3.4248657 1.3573608c-.6591797.2612305-1.1152344-.1313477-1.2412109-.2568359s-.5156251-.5869141-.256836-1.2407227zm13.0393066-3.5847168-7.9570312-7.9570312 2.0830078-2.0829468 2.7263184.6486206.7402344 3.1088867c.0869141.3676758.3740234.6542969.7421875.7416992l3.1035156.7358398.6455078 2.7211914zm3.744751-3.7446899-.5028076-2.1212769c-.0869141-.3681641-.3740234-.6552734-.7421875-.7426758l-3.1044922-.7363281-.7402344-3.1083984c-.0869141-.3671875-.3740234-.6542969-.7412109-.7412109l-2.1273193-.5059204 19.1964722-19.196228c.0008545-.0008545.0014648-.0014648.0023193-.0023193l5.59552-5.5953979 7.9572144 7.9568481zm-16.5887451-41.763855h6.4023438v12.9038086h-6.9052734c-3.3881836 0-6.1447144-2.7561646-6.1454468-6.144104l-.0000611-.133728c0-3.6538086 2.9824219-6.6259766 6.6484375-6.6259766zm42.2265625 76h-47.4433594l6.4736938-6.4100952 1.1171265 1.1171265c.1953125.1953125.4511719.2929687.7070313.2929687s.5117188-.0976562.7070312-.2929688c.390625-.390625.390625-1.0234375 0-1.4140625l-1.1101685-1.1101685 3.4252319-3.3916626 1.0931396 1.0931396c.1953125.1953125.4511719.2929688.7070312.2929688s.5117188-.0976562.7070312-.2929688c.390625-.390625.390625-1.0234375 0-1.4140625l-1.0861206-1.0861206 3.4259644-3.392395 1.0693359 1.0693359c.1953125.1953125.4511719.2929688.7070312.2929688s.5117188-.0976562.7070312-.2929688c.390625-.390625.390625-1.0234375 0-1.4140625l-1.0623169-1.0623169 3.4257202-3.3921509 1.0457764 1.0457764c.1953125.1953125.4511719.2929688.7070312.2929688s.5117188-.0976562.7070312-.2929688c.390625-.390625.390625-1.0234375 0-1.4140625l-1.0388184-1.0388184 3.425293-3.3916016 1.0217285 1.0217285c.1953125.1953125.4511719.2929688.7070312.2929688s.5117188-.0976562.7070312-.2929688c.390625-.390625.390625-1.0234375 0-1.4140625l-1.0147705-1.0147705 3.4260254-3.392334.9979248.9979248c.1953125.1953125.4511719.2929688.7070312.2929688s.5117188-.0976562.7070312-.2929688c.390625-.390625.390625-1.0234375 0-1.4140625l-.9909668-.9909668 3.4257812-3.3920898.9743652.9743652c.1953125.1953125.4511719.2929688.7070312.2929688s.5117188-.0976562.7070312-.2929688c.390625-.390625.390625-1.0234375 0-1.4140625l-.9674072-.9674072 3.425293-3.3916016.9503174.9503174c.1953125.1953125.4511719.2929688.7070312.2929688s.5117188-.0976562.7070312-.2929688c.390625-.390625.390625-1.0234375 0-1.4140625l-.9433594-.9433594 5.6220712-5.5668943zm2-6.0146484v-43.3603516c0-.4033203-.2421875-.7675781-.6152344-.9228516-.3701172-.1542969-.8017578-.0717773-1.0878906.2124023l-43.9700317 43.5379029c-3.0803223-1.1635742-5.1517334-4.0858154-5.1725464-7.3870239l-.0264282-49.9744263c1.4945679 1.7191772 3.6912842 2.8128052 6.1426392 2.8128052h25.2097778l-21.5750122 21.574707c-.5263672.5263672-.9326172 1.144043-1.2070312 1.8364258l-2.0579834 5.192688c-.0003052.0007324-.0005493.0014038-.0008545.0021362l-1.9206544 4.8461914c-.4707031 1.1884766-.2021484 2.4882812.7021484 3.3925781.609375.609375 1.3984375.9301758 2.2128906.9301758.3925781 0 .7919922-.0751953 1.1787109-.2285156l4.8457031-1.9204712c.0012817-.0004883.0025635-.0009766.0038452-.0015259l5.1914673-2.0574951c.6923828-.2744141 1.3105469-.6806641 1.8369141-1.2070312l32.3603516-32.3598633h15.0410156c4.3847656 0 7.9755859 3.5551758 8.0048828 7.9555664l.0281372.7692871c-.0023193 4.4165649-3.607666 8.0090332-8.039856 8.0090332h-8.75c-.5527344 0-1 .4477539-1 1v37.3476562h-7.3349608zm25.125-1.9990235c0 4.4189453-3.6064453 8.0136719-8.0400391 8.0136719h-7.75v-42.3623047h7.75c3.2851562 0 6.2070312-1.5820312 8.0400391-4.0219727z"/><path d="m51.9316406 65.8994141c-1.4892578-.6201172-3.1308594-.3022461-4.2792969.8349609l-8.0957031 8.0151367c-1.1542969 1.1430664-1.4873047 2.7866211-.8691406 4.2890625s2.0117188 2.4355469 3.6357422 2.4355469h8.0947266c2.1679688 0 3.9316406-1.7636719 3.9316406-3.9311523v-8.0151368c0-1.6157226-.9267578-3.0063476-2.4179688-3.6284179zm.4179688 11.6435547c0 1.0649414-.8662109 1.9311523-1.9316406 1.9311523h-8.0947266c-.8095703 0-1.4775391-.4472656-1.7861328-1.1967773-.3076172-.7490234-.1484375-1.5366211.4267578-2.1069336l8.0957031-8.0151367c.3769531-.3735352.8466797-.5673828 1.3369141-.5673828.2529297 0 .5117188.0517578.7646484.1577148.7441406.3100586 1.1884766.9765625 1.1884766 1.7822266z"/></svg>