<svg clip-rule="evenodd" fill-rule="evenodd" height="512" stroke-linejoin="round" stroke-miterlimit="2" viewBox="0 0 356 356" width="512" xmlns="http://www.w3.org/2000/svg"><g id="Exp-1.-O"><g><path d="m69.859 337.5h222.742c2.3 0 4.167-1.867 4.167-4.167 0-2.299-1.867-4.166-4.167-4.166h-222.742c-2.3 0-4.167 1.867-4.167 4.166 0 2.3 1.867 4.167 4.167 4.167z"/><path d="m288.641 277.415c0-2.302-1.865-4.167-4.166-4.167h-206.49c-2.301 0-4.166 1.865-4.166 4.167v55.918c0 2.302 1.865 4.167 4.166 4.167h206.49c2.301 0 4.166-1.865 4.166-4.167zm-8.333 4.166v47.586h-198.156v-47.586z"/><path d="m104.768 310.689h152.925c2.299 0 4.166-1.867 4.166-4.167s-1.867-4.167-4.166-4.167h-152.925c-2.3 0-4.167 1.867-4.167 4.167s1.867 4.167 4.167 4.167z"/><path d="m257.942 281.581c2.083 0 3.846-1.538 4.128-3.602l34.887-255.192c.242-1.766-.667-3.49-2.26-4.289s-3.518-.496-4.789.753c0 0-132.406 130.184-170.79 167.923-7.444 7.32-9.874 18.34-6.197 28.112 8.325 22.123 23.932 63.596 23.932 63.596.611 1.624 2.165 2.699 3.9 2.699zm-3.636-8.333h-110.669s-22.916-60.897-22.916-60.897c-2.516-6.686-.854-14.226 4.24-19.234 0 0 162.087-159.367 162.087-159.367z"/><path d="m213.91 103.864 7.595-47.644c.283-1.775-.605-3.532-2.202-4.357-1.597-.826-3.544-.534-4.828.725 0 0-103.813 101.677-137.407 134.579-7.472 7.318-9.916 18.359-6.233 28.147 8.328 22.131 23.921 63.568 23.921 63.568.81 2.152 3.215 3.242 5.367 2.432 2.153-.81 3.243-3.215 2.433-5.367 0 0-15.594-41.437-23.922-63.568-2.52-6.697-.847-14.251 4.265-19.258 0 0 128.39-125.748 128.39-125.748s-5.608 35.179-5.608 35.179c-.362 2.271 1.188 4.408 3.459 4.77 2.271.363 4.408-1.187 4.77-3.458z"/></g></g></svg>