<svg xmlns="http://www.w3.org/2000/svg" id="Layer_1" data-name="Layer 1" viewBox="0 0 301.46 331.65"><path d="M254.75,185.15A2,2,0,0,1,254,185L105.3,125.44a2.06,2.06,0,0,1,0-3.83L254,62.05a2,2,0,0,1,1.53,0l148.64,59.56a2.06,2.06,0,0,1,0,3.83L255.52,185A2.07,2.07,0,0,1,254.75,185.15ZM111.62,123.52l143.13,57.34,143.09-57.34L254.75,66.19Z" transform="translate(-104 -61.9)"></path><path d="M254.75,270.76a2,2,0,0,1-.76-.14L105.3,211.06a2.07,2.07,0,0,1,1.53-3.84l147.92,59.25,147.88-59.25a2.07,2.07,0,0,1,1.53,3.84L255.52,270.62A2.06,2.06,0,0,1,254.75,270.76Z" transform="translate(-104 -61.9)"></path><path d="M254.75,307.94a2,2,0,0,1-.76-.15L105.3,248.23a2.06,2.06,0,0,1,0-3.83l46.38-18.59a2.07,2.07,0,0,1,1.53,3.84l-41.59,16.66,143.13,57.34,143.09-57.34-41.59-16.66a2.07,2.07,0,0,1,1.53-3.84l46.38,18.59a2.06,2.06,0,0,1,0,3.83L255.52,307.79A2.07,2.07,0,0,1,254.75,307.94Z" transform="translate(-104 -61.9)"></path><path d="M254.75,393.55a2.13,2.13,0,0,1-.85-.18l-148.68-67A2.06,2.06,0,0,1,104,324.5V246.31a2.07,2.07,0,0,1,4.13,0v76.85L252.69,388.3V305.87a2.07,2.07,0,0,1,4.13,0v85.62a2.07,2.07,0,0,1-2.07,2.06Z" transform="translate(-104 -61.9)"></path><path d="M254.75,270.76a2.06,2.06,0,0,1-2.06-2.06V183.08a2.07,2.07,0,0,1,4.13,0V268.7A2.07,2.07,0,0,1,254.75,270.76Z" transform="translate(-104 -61.9)"></path><path d="M106.07,211.21a2.07,2.07,0,0,1-2.07-2.07V123.52a2.07,2.07,0,0,1,4.13,0v85.62A2.07,2.07,0,0,1,106.07,211.21Z" transform="translate(-104 -61.9)"></path><path d="M254.75,393.55a2.06,2.06,0,0,1-.85-3.94l147.43-66.45V246.31a2.07,2.07,0,0,1,4.13,0V324.5a2.06,2.06,0,0,1-1.22,1.88l-148.64,67A2,2,0,0,1,254.75,393.55Z" transform="translate(-104 -61.9)"></path><path d="M403.39,211.21a2.07,2.07,0,0,1-2.06-2.07V123.52a2.07,2.07,0,0,1,4.13,0v85.62A2.07,2.07,0,0,1,403.39,211.21Z" transform="translate(-104 -61.9)"></path></svg>