<svg xmlns="http://www.w3.org/2000/svg" id="Layer_1" data-name="Layer 1" viewBox="0 0 320.18 352.25"><path d="M249.91,197.19a2.1,2.1,0,0,1-.82-.16L91.19,133.79a2.2,2.2,0,0,1,0-4.07l157.9-63.25a2.19,2.19,0,0,1,1.63,0l157.9,63.25a2.19,2.19,0,0,1,0,4.07L250.72,197A2.09,2.09,0,0,1,249.91,197.19Zm-152-65.44,152,60.88,152-60.88-152-60.88Z" transform="translate(-89.82 -66.31)"></path><path d="M249.89,260.42a2.1,2.1,0,0,1-.82-.16L91.2,197.05A2.19,2.19,0,0,1,92.83,193l157.06,62.88L407,193a2.19,2.19,0,1,1,1.63,4.07L250.71,260.26A2.14,2.14,0,0,1,249.89,260.42Z" transform="translate(-89.82 -66.31)"></path><path d="M249.89,299.29a2.3,2.3,0,0,1-.82-.16l-39.39-15.79a2.19,2.19,0,1,1,1.63-4.07l38.58,15.46,152-60.89L367.38,220a2.19,2.19,0,0,1,1.63-4.07l39.61,15.88a2.19,2.19,0,0,1,0,4.07L250.71,299.13A2.34,2.34,0,0,1,249.89,299.29Z" transform="translate(-89.82 -66.31)"></path><path d="M131.63,251.91a2.14,2.14,0,0,1-.82-.16L91.2,235.87a2.19,2.19,0,0,1,0-4.07l48.47-19.43a2.19,2.19,0,1,1,1.63,4.07l-43.39,17.4,34.53,13.84a2.19,2.19,0,0,1-.81,4.23Z" transform="translate(-89.82 -66.31)"></path><path d="M249.89,418.56a2.34,2.34,0,0,1-.9-.19L91.11,347.21a2.2,2.2,0,0,1-1.29-2V233.84a2.2,2.2,0,0,1,4.39,0v110L247.7,413V297.09a2.19,2.19,0,0,1,4.38,0V416.37a2.18,2.18,0,0,1-1,1.84A2.23,2.23,0,0,1,249.89,418.56Z" transform="translate(-89.82 -66.31)"></path><path d="M249.89,260.42a2.19,2.19,0,0,1-2.19-2.19V195a2.19,2.19,0,0,1,4.38,0v63.21A2.19,2.19,0,0,1,249.89,260.42Z" transform="translate(-89.82 -66.31)"></path><path d="M92,197.21a2.19,2.19,0,0,1-2.2-2.19V131.76a2.2,2.2,0,0,1,4.39,0V195A2.19,2.19,0,0,1,92,197.21Z" transform="translate(-89.82 -66.31)"></path><path d="M249.89,418.56a2.19,2.19,0,0,1-.9-4.19l156.62-70.58v-110a2.2,2.2,0,0,1,4.39,0V345.21a2.2,2.2,0,0,1-1.29,2L250.79,418.37A2.21,2.21,0,0,1,249.89,418.56Z" transform="translate(-89.82 -66.31)"></path><path d="M407.81,197.21a2.19,2.19,0,0,1-2.2-2.19V131.76a2.2,2.2,0,0,1,4.39,0V195A2.19,2.19,0,0,1,407.81,197.21Z" transform="translate(-89.82 -66.31)"></path><path d="M210.48,346.53a2.09,2.09,0,0,1-.81-.16l-78.85-31.54a2.19,2.19,0,0,1-1.38-2V249.71a2.18,2.18,0,0,1,1.37-2l47.82-19.31a2.19,2.19,0,0,1,1.64,4.07l-46.44,18.75v60.12l74.46,29.79V281.26a2.19,2.19,0,0,1,1.38-2l157.69-63.3A2.19,2.19,0,1,1,369,220L212.68,282.74v61.6a2.21,2.21,0,0,1-2.2,2.19Z" transform="translate(-89.82 -66.31)"></path><path d="M131.63,315a2.19,2.19,0,0,1-.7-4.27L209.8,284.4a2.19,2.19,0,1,1,1.39,4.16l-78.87,26.32A2.07,2.07,0,0,1,131.63,315Z" transform="translate(-89.82 -66.31)"></path></svg>