<svg xmlns="http://www.w3.org/2000/svg" fill="none" height="32" viewBox="0 0 32 32" width="32"><path d="m26 4h-3v-1c0-.26522-.1054-.51957-.2929-.70711-.1875-.18753-.4419-.29289-.7071-.29289s-.5196.10536-.7071.29289c-.1875.18754-.2929.44189-.2929.70711v1h-10v-1c0-.26522-.1054-.51957-.2929-.70711-.1875-.18753-.4419-.29289-.7071-.29289-.26522 0-.51957.10536-.70711.29289-.18753.18754-.29289.44189-.29289.70711v1h-3c-.53043 0-1.03914.21071-1.41421.58579-.37508.37507-.58579.88378-.58579 1.41421v20c0 .5304.21071 1.0391.58579 1.4142.37507.3751.88378.5858 1.41421.5858h20c.5304 0 1.0391-.2107 1.4142-.5858s.5858-.8838.5858-1.4142v-20c0-.53043-.2107-1.03914-.5858-1.41421-.3751-.37508-.8838-.58579-1.4142-.58579zm-4.8125 12.725-5.8375 5.5c-.0908.089-.1982.1591-.3162.2063s-.2442.0705-.3713.0687c-.2562.001-.5027-.0976-.6875-.275l-3.1625-3c-.1016-.0886-.1842-.1969-.2429-.3183-.0587-.1213-.0922-.2533-.0986-.388-.0063-.1346.0146-.2692.0615-.3956.047-.1263.119-.2419.2118-.3397s.2043-.1759.328-.2295.257-.0816.3918-.0824.2684.0257.3927.0778c.1243.0522.2368.129.3307.2257l2.475 2.35 5.15-4.85c.0944-.0917.2063-.1636.3289-.2115.1227-.0478.2536-.0707.3852-.0672.1317.0035.2612.0333.3812.0876.1199.0543.2278.132.3172.2286.1821.1924.2805.4492.2734.714-.007.2648-.1188.516-.3109.6985zm4.8125-6.725h-20v-4h3v1c0 .26522.10536.51957.29289.70711.18754.18753.44189.29289.70711.29289.2652 0 .5196-.10536.7071-.29289.1875-.18754.2929-.44189.2929-.70711v-1h10v1c0 .26522.1054.51957.2929.70711.1875.18753.4419.29289.7071.29289s.5196-.10536.7071-.29289c.1875-.18754.2929-.44189.2929-.70711v-1h3z" fill="rgb(0,0,0)"></path></svg>