<svg xmlns="http://www.w3.org/2000/svg" id="line_icons" height="512" viewBox="0 0 74 74" width="512" data-name="line icons"><path d="m37 27.51a4.963 4.963 0 1 1 4.963-4.963 4.968 4.968 0 0 1 -4.963 4.963zm0-7.925a2.963 2.963 0 1 0 2.963 2.962 2.966 2.966 0 0 0 -2.963-2.962z"></path><path d="m20.324 66.706a5.046 5.046 0 0 1 -1.707-.3 5.031 5.031 0 0 1 -3.041-6.43l11.649-33.5a1 1 0 1 1 1.889.657l-11.652 33.507a3.038 3.038 0 0 0 .112 2.329 3.028 3.028 0 0 0 5.593-.277l10.745-30.907a1 1 0 0 1 1.888.656l-10.746 30.914a5.027 5.027 0 0 1 -4.73 3.351z"></path><path d="m53.678 66.706a5.037 5.037 0 0 1 -4.729-3.34l-10.749-30.925a1 1 0 0 1 1.888-.656l10.746 30.915a3.032 3.032 0 0 0 5.707-2.049l-11.655-33.5a1 1 0 1 1 1.889-.657l11.651 33.488a5.045 5.045 0 0 1 -4.748 6.724z"></path><path d="m57.292 72a1 1 0 0 1 -.927-.624l-2.246-5.534a1 1 0 0 1 1.853-.752l2.247 5.534a1 1 0 0 1 -.927 1.376z"></path><path d="m16.71 72a1 1 0 0 1 -.926-1.376l2.246-5.534a1 1 0 0 1 1.854.752l-2.247 5.534a1 1 0 0 1 -.927.624z"></path><path d="m37 33.35a10.8 10.8 0 1 1 10.8-10.8 10.815 10.815 0 0 1 -10.8 10.8zm0-19.605a8.8 8.8 0 1 0 8.8 8.8 8.812 8.812 0 0 0 -8.8-8.8z"></path><path d="m40.109 14.249a1 1 0 0 1 -1-1v-7.149a2.109 2.109 0 0 0 -4.218 0v7.145a1 1 0 1 1 -2 0v-7.145a4.109 4.109 0 1 1 8.218 0v7.145a1 1 0 0 1 -1 1.004z"></path><path d="m59.044 50.1h-5.462a1 1 0 0 1 0-2h5.462a1 1 0 0 1 0 2z"></path><path d="m20.418 50.1h-5.462a1 1 0 0 1 0-2h5.462a1 1 0 0 1 0 2z"></path><path d="m45.044 50.1h-16.088a1 1 0 0 1 0-2h16.088a1 1 0 0 1 0 2z"></path></svg>