<svg xmlns="http://www.w3.org/2000/svg" fill="none" height="512" viewBox="0 0 128 128" width="512"><path clip-rule="evenodd" d="m69.2675 16.5387 1.9692 1.4613h21.7633c2.2091 0 4 1.7909 4 4v15.1195l13.768 10.2172c2.033 1.5091 3.232 3.8919 3.232 6.4242v48.2401c0 4.418-3.582 8-8 8h-83c-4.4183 0-8-3.582-8-8v-48.2401c0-2.5323 1.1989-4.9151 3.2325-6.4242l13.7675-10.2172v-15.1195c0-2.2091 1.7909-4 4-4h21.7633l1.9692-1.4613c2.8311-2.1011 6.7039-2.1011 9.535 0zm23.6471 46.5736c.0557-.1259.0854-.2634.0854-.4043v-40.708h-57v41.8466l-8.6992-7.3651c-.8386-.7188-2.1012-.6217-2.8201.2169-.7188.8387-.6217 2.1013.217 2.8201l7.9912 6.8496c.2089.3081.4619.5885.7543.8315l7.0104 5.824 4.3803 3.7546c-.0346.0302-.0684.0617-.1014.0947l-20.5373 20.5373c-.7811.7811-.7811 2.0474 0 2.8288.781.781 2.0473.781 2.8284 0l20.5373-20.5377c.1075-.1074.2002-.2241.2781-.3474l1.4863 1.274c1.0696.9169 2.2021 1.7197 3.3819 2.4086 6.7969 4.4803 15.5748 4.6 22.4704.3939 1.5308-.823 2.9886-1.8317 4.3406-3.0256l1.3281-1.1728c.0904.1686.2068.327.3491.4693l20.5376 20.5377c.781.781 2.047.781 2.828 0 .781-.7814.781-2.0477 0-2.8288l-20.5372-20.5373c-.0813-.0813-.1679-.1542-.2587-.2186l20.5579-18.1552c.828-.7311.907-1.995.175-2.823-.731-.8279-1.995-.9063-2.823-.1752z" fill="rgb(0,0,0)" fill-rule="evenodd"></path></svg>