<svg xmlns="http://www.w3.org/2000/svg" fill="none" height="512" viewBox="0 0 24 24" width="512"><path clip-rule="evenodd" d="m1 12c0-6.075 4.925-11 11-11s11 4.925 11 11-4.925 11-11 11-11-4.925-11-11zm12-6c0-.26522-.1054-.51957-.2929-.70711-.1875-.18753-.4419-.29289-.7071-.29289s-.5196.10536-.7071.29289c-.1875.18754-.2929.44189-.2929.70711v1c-.7956 0-1.55871.31607-2.12132.87868s-.87868 1.32567-.87868 2.12132c0 .7956.31607 1.5587.87868 2.1213s1.32572.8787 2.12132.8787h2c.2652 0 .5196.1054.7071.2929s.2929.4419.2929.7071-.1054.5196-.2929.7071-.4419.2929-.7071.2929h-4c-.26522 0-.51957.1054-.70711.2929-.18753.1875-.29289.4419-.29289.7071s.10536.5196.29289.7071c.18754.1875.44189.2929.70711.2929h2v1c0 .2652.1054.5196.2929.7071s.4419.2929.7071.2929.5196-.1054.7071-.2929.2929-.4419.2929-.7071v-1c.394 0 .7841-.0776 1.1481-.2284.3639-.1507.6946-.3717.9732-.6503s.4996-.6093.6503-.9732c.1508-.364.2284-.7541.2284-1.1481s-.0776-.7841-.2284-1.1481c-.1507-.3639-.3717-.6946-.6503-.9732s-.6093-.4996-.9732-.6503c-.364-.1508-.7541-.2284-1.1481-.2284h-2c-.2652 0-.5196-.1054-.7071-.2929s-.2929-.4419-.2929-.7071c0-.26522.1054-.51957.2929-.70711.1875-.18753.4419-.29289.7071-.29289h4c.2652 0 .5196-.10536.7071-.29289.1875-.18754.2929-.44189.2929-.70711s-.1054-.51957-.2929-.70711c-.1875-.18753-.4419-.29289-.7071-.29289h-2z" fill="rgb(0,0,0)" fill-rule="evenodd"></path></svg>