<svg enable-background="new 0 0 512 512" height="512" viewBox="0 0 512 512" width="512" xmlns="http://www.w3.org/2000/svg"><g id="_x30_8_Guidance"><g><path d="m508.797 269.159-127.225-101.469c-1.761-1.403-4.162-1.677-6.189-.697-2.028.976-3.316 3.026-3.316 5.275v48.783h-28.18c-12.176 0-23.942 1.677-35.2 4.618v-78.612h48.783c4.885 0 7.635-5.661 4.573-9.505l-101.47-127.227c-2.211-2.782-6.936-2.782-9.147 0l-101.469 127.226c-3.058 3.84-.316 9.505 4.573 9.505h48.783v78.636c-11.274-2.923-23.025-4.641-35.2-4.641h-28.18v-48.783c0-4.878-5.641-7.625-9.505-4.577l-127.225 101.468c-1.395 1.113-2.203 2.798-2.203 4.577 0 1.78.808 3.464 2.203 4.577l127.226 101.469c3.868 3.056 9.505.295 9.505-4.577v-48.783h28.18c19.407 0 35.2 15.794 35.2 35.204v136.281c0 3.232 2.622 5.854 5.854 5.854h93.664c3.232 0 5.854-2.622 5.854-5.854v-136.28c0-19.41 15.794-35.204 35.2-35.204h28.18v48.783c0 4.872 5.646 7.643 9.505 4.577l127.226-101.469c1.395-1.113 2.203-2.797 2.203-4.577s-.808-3.465-2.203-4.578zm-299.629-133.811h-42.48l89.312-111.985 89.312 111.985h-42.48c-3.232 0-5.854 2.622-5.854 5.854v88.089c-14.932 5.347-28.67 13.153-40.81 22.919-12.201-9.839-26.101-17.589-41.146-22.94v-88.069c0-3.231-2.622-5.853-5.854-5.853zm87.81 356.706h-81.956c0-38.952 0-70.633 0-130.427 0-25.867-21.045-46.912-46.908-46.912h-34.034c-3.232 0-5.854 2.622-5.854 5.854v42.48l-111.981-89.313 111.981-89.312v42.48c0 3.232 2.622 5.854 5.854 5.854h34.034c71.056 0 128.864 57.808 128.864 128.868zm86.796-129.006v-42.48c0-3.232-2.622-5.854-5.854-5.854h-34.034c-15.596 0-29.402 7.684-37.937 19.433-5.752-28.9-20.439-54.562-40.988-74.153 21.832-16.998 49.174-27.236 78.924-27.236h34.034c3.232 0 5.854-2.622 5.854-5.854v-42.48l111.981 89.312z"/></g></g></svg>