<svg xmlns="http://www.w3.org/2000/svg" xmlns:xlink="http://www.w3.org/1999/xlink" id="Capa_1" x="0px" y="0px" viewBox="0 0 512 512" style="enable-background:new 0 0 512 512;" xml:space="preserve"><g>	<path d="M191.9,327.6h224.4c4.2,0,7.5-3.4,7.5-7.5V143.8c0-2.3-1.1-4.5-2.9-5.9L308.7,49.7c-2.7-2.1-6.6-2.1-9.3,0l-112.2,88.2  c-1.8,1.4-2.9,3.6-2.9,5.9v176.3C184.4,324.3,187.7,327.6,191.9,327.6z M336.7,312.6h-65.1V199.4h65.1V312.6z M199.4,147.4  l104.7-82.3l104.7,82.3v165.2h-57.1V191.9c0-4.2-3.4-7.5-7.5-7.5H264c-4.2,0-7.5,3.4-7.5,7.5v120.7h-57.1V147.4z"></path>	<path d="M464.4,312.6c-4.2,0-7.5,3.4-7.5,7.5s3.4,7.5,7.5,7.5h32.1c4.2,0,7.5-3.4,7.5-7.5s-3.4-7.5-7.5-7.5H488V63.1h8.5  c4.2,0,7.5-3.4,7.5-7.5c0-4.2-3.4-7.5-7.5-7.5h-32.1c-4.2,0-7.5,3.4-7.5,7.5c0,4.2,3.4,7.5,7.5,7.5h8.5v249.5H464.4z"></path>	<path d="M504.5,384.8L504.5,384.8l-69.5,0v0h-55.3h-37.4h-215V7.5c0-4.2-3.4-7.5-7.5-7.5H7.5C3.4,0,0,3.4,0,7.5v497  c0,4.2,3.4,7.5,7.5,7.5h497c4.2,0,7.5-3.4,7.5-7.5V392.3C512,388.1,508.6,384.8,504.5,384.8z M497,497h-41.1v-24.5  c0-4.2-3.4-7.5-7.5-7.5s-7.5,3.4-7.5,7.5V497h-49.1v-32.6c0-4.2-3.4-7.5-7.5-7.5s-7.5,3.4-7.5,7.5V497h-49.1v-24.5  c0-4.2-3.4-7.5-7.5-7.5s-7.5,3.4-7.5,7.5V497h-49.1v-32.6c0-4.2-3.4-7.5-7.5-7.5s-7.5,3.4-7.5,7.5V497h-49.1v-24.5  c0-4.2-3.4-7.5-7.5-7.5s-7.5,3.4-7.5,7.5V497h-49.1v-32.6c0-4.2-3.4-7.5-7.5-7.5s-7.5,3.4-7.5,7.5V497H71.1v-24.5  c0-4.2-3.4-7.5-7.5-7.5s-7.5,3.4-7.5,7.5V497H15v-41.1c0.2,0,0.3,0,0.5,0h24c4.2,0,7.5-3.4,7.5-7.5s-3.4-7.5-7.5-7.5h-24  c-0.2,0-0.3,0-0.5,0v-49.1c0.2,0,0.3,0,0.5,0h40.1c4.2,0,7.5-3.4,7.5-7.5s-3.4-7.5-7.5-7.5H15.5c-0.2,0-0.3,0-0.5,0v-49.1  c0.2,0,0.3,0,0.5,0h24c4.2,0,7.5-3.4,7.5-7.5s-3.4-7.5-7.5-7.5h-24c-0.2,0-0.3,0-0.5,0v-49.1c0.2,0,0.3,0,0.5,0h40.1  c4.2,0,7.5-3.4,7.5-7.5s-3.4-7.5-7.5-7.5H15.5c-0.2,0-0.3,0-0.5,0v-49.1c0.2,0,0.3,0,0.5,0h24c4.2,0,7.5-3.4,7.5-7.5  c0-4.2-3.4-7.5-7.5-7.5h-24c-0.2,0-0.3,0-0.5,0v-49.1c0.2,0,0.3,0,0.5,0h40.1c4.2,0,7.5-3.4,7.5-7.5c0-4.2-3.4-7.5-7.5-7.5H15.5  c-0.2,0-0.3,0-0.5,0V71.1c0.2,0,0.3,0,0.5,0h24c4.2,0,7.5-3.4,7.5-7.5c0-4.2-3.4-7.5-7.5-7.5h-24c-0.2,0-0.3,0-0.5,0V15h97.2v377.2  c0,4.2,3.4,7.5,7.5,7.5h222.5v0h74.1H435h62V497z"></path></g></svg>