<svg enable-background="new 0 0 511.999 512" height="512" viewBox="0 0 511.999 512" width="512" xmlns="http://www.w3.org/2000/svg"><g id="_x31__11_"><path clip-rule="evenodd" d="m98.2266 440.6475h297.4414v-64.2236h-18.9824-265.7061-12.7529zm186.9746-296.1402v-24.9512h11.3965v24.9512zm87.7695 269.7281h-252.0469v-11.3984h252.0469zm-181.9043-269.7281v-24.9512h11.3984v24.9512zm78.6191 94.2798h42.4287l5.6992 5.6992v79.9072l-5.6992 5.6992h-42.4287l-5.6992-5.6992v-79.9072zm36.7295 11.398h-31.0303v68.5093h31.0303zm-130.8642-11.398h42.4297l5.6992 5.6992v79.9072l-5.6992 5.6992h-42.4297l-5.6992-5.6992v-79.9072zm36.7305 11.398h-31.0313v68.5093h31.0313zm158.705 114.8413v-139.9551l-127.1543-74.2715-127.1533 74.2715v139.9551zm-265.705 0v-143.2237l2.8262-4.9199 50.3457-29.4077v-76.0586l2.8281-4.9199 79.6797-46.5415h5.7432l79.6797 46.5415 2.8271 4.9199v76.0586l50.3467 29.4077 2.8271 4.9199v143.2236h18.9824l1.4395 1.4385 1.2549-.748 35.1201 18.9053 35.1211 18.9053v10.0176l-70.2412 37.8105-1.2549-.749-1.4395 1.4385h-308.8399-49.1328l-5.6992-5.6982v-75.6211l5.6992-5.6992h49.1328 12.754zm64.5703-184.2085 71.1094-41.5352h5.7432l71.1094 41.5352v-66.1328l-73.9816-43.2129-73.9805 43.2129v66.1328zm-83.0235 195.6059h-37.7343v64.2236h37.7344v-64.2236zm372.7813 32.1123-52.543-28.2832v56.5664z" fill-rule="evenodd"/></g></svg>