<svg xmlns="http://www.w3.org/2000/svg" id="Layer_2" height="512" viewBox="0 0 512 512" width="512"><path d="m363.8647461 252.5244141 94.2211914-94.2211914c.8362427-.8671722 1.4953308-1.8901978 1.8984375-3.0263672l49.5712891-142.3823242c1.0087891-2.8989258.2705078-6.1196289-1.9003906-8.2890625-2.1728516-2.1704102-5.3945312-2.9057617-8.2910156-1.8945312l-142.3007812 49.652832c-1.1282959.4105988-2.1758728 1.0628395-3.0214844 1.8964844l-94.2207031 94.2207031-138.1093751-138.1093751c-10.9296875-10.9301758-28.7119141-10.9282226-39.6416016 0l-71.6992188 71.699707c-10.9287109 10.9287109-10.9287109 28.7119141 0 39.640625l138.1098633 138.109375-108.6118164 108.6118165-23.6464844 23.6464844c-9.1210937 9.1210937-14.1445312 21.2480468-14.1445312 34.1469726 0 12.8994141 5.0234375 25.0263672 14.1445312 34.1474609l35.7480469 35.7485352c9.4150391 9.4145508 21.78125 14.121582 34.1474609 14.121582 12.3671875 0 24.7333984-4.7070312 34.1484375-14.121582l23.6464844-23.6464844 108.6113281-108.6113281 137.7636719 137.7636719c5.4648438 5.4648438 12.6425781 8.1967773 19.8203125 8.1967773 7.1787109 0 14.3564453-2.7319336 19.8212891-8.1967773l71.6992188-71.6992188c10.9287109-10.9287109 10.9287109-28.7114258 0-39.6411133zm-16.9697266-5.6582032c-.0004883.0004883-.0009766.0009766-.0014648.0014648l-100.0263672 100.0263673c-.0009766.0009766-.0019531.0021973-.0029297.0031738l-74.0075684 74.0078125-35.0551758-35.0551758 140.2922364-140.291748c.3034668-.2270508.5991211-.4697266.875-.7456055l32.9355469-32.9355469c.2758789-.2758789.5185547-.5715332.7458496-.875l86.6813965-86.6811523 1.8461914 25.800293c.2841797 3.9677734 3.4404297 7.1245117 7.4082031 7.4082031l25.7998047 1.8461914zm-208.638916 208.6394043-81.4160156-81.4160156 23.2866211-23.2866211 40.6987305 40.6987305c.001709.001709.0029297.003418.0046387.005127s.003418.0029297.005127.0046387l40.7075195 40.7075195zm27.189209-190.0212402c.0021973-.0024414.0046387-.0041504.0068359-.0063477l100.0263672-100.0263672c.0029297-.0029297.0048828-.0058594.0078125-.0087891l87.4814453-87.4814453 1.84375 25.793457c.2832031 3.9682617 3.4404297 7.1254883 7.4091797 7.4091797l25.7954102 1.8442383-261.5285645 261.527588-35.046875-35.046875zm268.2485352-222.9130859 36.0397949 36.0397949-22.8459473 65.6184082-30.2460938-2.1645508-2.6015625-36.3579102c-.2268982-3.8748627-3.5346069-7.1815796-7.4091797-7.4086914l-36.3544922-2.5991211-2.161377-30.2458496zm41.8833007 19.2553711-25.1086426-25.1086426 38.5314942-13.4445801zm-453.8916015 48.5717773c-4.6914062-4.690918-4.6914062-12.3227539 0-17.0136719l71.6992188-71.699707c2.3447266-2.3452148 5.4257812-3.5180664 8.5068359-3.5180664 3.0800781 0 6.1611328 1.1728516 8.5058594 3.5180664l12.7209473 12.7209473-27.2785645 27.2790527c-3.1240234 3.1240234-3.1240234 8.1894531 0 11.3134766 1.5625 1.5620117 3.6103516 2.3432617 5.6572266 2.3432617 2.0478516 0 4.0947266-.78125 5.6572266-2.3432617l27.2780762-27.2785645 31.6398926 31.6398926-12.2294922 12.2294922c-3.1240234 3.1240234-3.1240234 8.1894531 0 11.3134766 1.5625 1.5620117 3.609375 2.3432617 5.6572266 2.3432617s4.0947266-.78125 5.6572266-2.3432617l12.2290039-12.2290039 31.6396484 31.6391602-27.2788086 27.2788086c-3.1240234 3.1240234-3.1240234 8.1894531 0 11.3134766 1.5625 1.5620117 3.609375 2.3432617 5.6572266 2.3432617s4.0947266-.78125 5.6572266-2.3432617l27.2783203-27.2783203 28.1677246 28.1677246-88.7128906 88.7128906zm87.2666015 374.4106445c-12.5888672 12.5888672-33.0761719 12.5898438-45.6669922 0l-35.7480469-35.7485352c-6.0996094-6.0991211-9.4589844-14.2084961-9.4589844-22.8339844 0-8.625 3.359375-16.734375 9.4589844-22.8334961l17.9890137-17.989502 81.4160156 81.4160156zm381.3623047-66.1933593-71.6992188 71.6992188c-4.6884766 4.6889648-12.3222656 4.690918-17.0126953 0l-137.7644043-137.763916 88.7128906-88.7128906 28.2893066 28.2893066-27.2788085 27.2788085c-3.1240234 3.1240234-3.1240234 8.1894531 0 11.3134766 1.5625 1.5620117 3.609375 2.3432617 5.6572266 2.3432617s4.0947266-.78125 5.6572266-2.3432617l27.2783203-27.2783203 31.6394043 31.6394043-12.2302246 12.2302246c-3.1240234 3.1240234-3.1240234 8.1894531 0 11.3134766 1.5625 1.5620117 3.609375 2.3432617 5.6572266 2.3432617s4.0947266-.78125 5.6572266-2.3432617l12.2297363-12.2297363 31.6398926 31.6398926-27.2788087 27.2788085c-3.1240234 3.1240234-3.1240234 8.1894531 0 11.3134766 1.5625 1.5620117 3.609375 2.3432617 5.6572266 2.3432617s4.0947266-.78125 5.6572266-2.3432617l27.2783203-27.2783203 12.2529297 12.2529297c4.6914062 4.6909179 4.6914062 12.3232421-.0000001 17.0141601z"></path></svg>