<svg xmlns="http://www.w3.org/2000/svg" clip-rule="evenodd" fill-rule="evenodd" height="512" stroke-linejoin="round" stroke-miterlimit="2" viewBox="0 0 48 48" width="512"><g transform="translate(-144 -48)"><g id="Icon"><path d="m147.293 72.121 2.828-2.828c.391-.391 1.024-.391 1.415 0 0 0 9.757 9.757 9.757 9.757.39.391 1.024.391 1.414 0l21.757-21.757c.391-.391 1.024-.391 1.415 0 0 0 2.828 2.828 2.828 2.828.188.188.293.442.293.707 0 .266-.105.52-.293.708l-26 26c-.187.187-.442.292-.707.292s-.52-.105-.707-.292c0 0-14-14-14-14-.391-.391-.391-1.024 0-1.415z"></path></g></g></svg>