<svg width="399" height="67" viewBox="0 0 399 67" fill="none" xmlns="http://www.w3.org/2000/svg">
<path d="M100.177 13.3854H115.772L129.139 55.4674H116.391L114.163 47.6079H100.239L98.0108 55.4674H86.7477L100.177 13.3854ZM102.528 39.3772H111.749L107.17 23.1633L102.528 39.3772Z" fill="#2D2D2D"/>
<path d="M132.728 31.8886H128.829V24.7099H132.728V22.3583C132.728 14.6845 137.431 11.0952 144.734 11.0952C146.652 11.0952 148.076 11.3427 149.437 11.714V19.4497C148.695 19.2022 147.766 19.0165 146.59 19.0165C144.239 19.0165 143.187 20.4399 143.187 22.3583V24.7099H152.16V21.987C152.16 14.3132 156.925 10.662 164.228 10.662C166.146 10.662 167.508 10.9095 168.869 11.2808V19.0165C168.126 18.769 167.322 18.6452 166.084 18.6452C163.671 18.6452 162.681 20.0067 162.681 21.987V24.7099H168.869V31.8886H162.681V55.4669H152.16V31.8886H143.187V55.4669H132.728V31.8886Z" fill="#2D2D2D"/>
<path d="M171.34 16.3567C171.34 13.2625 173.815 10.9108 177.095 10.9108C180.375 10.9108 182.912 13.2625 182.912 16.3567C182.912 19.451 180.375 21.8026 177.095 21.8026C173.815 21.7407 171.34 19.451 171.34 16.3567ZM171.897 24.7112H182.417V55.4682H171.897V24.7112Z" fill="#2D2D2D"/>
<path d="M198.512 11.1597H188.053V55.4695H198.512V11.1597Z" fill="#2D2D2D"/>
<path d="M203.647 16.3567C203.647 13.2625 206.123 10.9108 209.403 10.9108C212.683 10.9108 215.22 13.2625 215.22 16.3567C215.22 19.451 212.683 21.8026 209.403 21.8026C206.123 21.7407 203.647 19.451 203.647 16.3567ZM204.204 24.7112H214.725V55.4682H204.204V24.7112Z" fill="#2D2D2D"/>
<path d="M218.495 46.9199C218.495 39.6793 224.621 36.8326 234.833 36.8326H237.803V36.1519C237.803 33.1814 237.122 31.2629 233.719 31.2629C230.81 31.2629 229.758 32.9957 229.51 34.9142H219.609C220.104 27.4879 225.921 23.8367 234.337 23.8367C242.816 23.8367 248.2 27.3023 248.2 35.4711V55.4601H237.927V51.8707C236.442 54.0986 233.719 56.1408 228.83 56.1408C223.384 56.2027 218.495 53.4797 218.495 46.9199ZM237.803 44.692V42.8355H235.018C230.81 42.8355 228.892 43.64 228.892 46.1773C228.892 47.972 230.067 49.0859 232.543 49.0859C235.575 49.0859 237.803 47.3531 237.803 44.692Z" fill="#2D2D2D"/>
<path d="M254.585 45.6325V31.894H250.872V24.7153H254.585V18.2793H265.105V24.7153H271.17V31.894H265.105V44.5805C265.105 46.8084 266.219 47.7985 268.2 47.7985C269.375 47.7985 270.242 47.6129 271.232 47.2416V55.2248C269.87 55.5961 267.89 56.0912 265.415 56.0912C258.422 56.2149 254.585 52.8731 254.585 45.6325Z" fill="#2D2D2D"/>
<path d="M273.019 40.4838V39.9888C273.019 30.0871 280.383 23.8367 289.666 23.8367C298.082 23.8367 305.323 28.6638 305.323 39.7412V42.5261H283.663C283.972 46.6105 286.324 48.9621 290.099 48.9621C293.564 48.9621 295.05 47.3531 295.483 45.3109H305.385C304.456 52.242 299.072 56.2027 289.789 56.2027C280.073 56.2027 273.019 50.5093 273.019 40.4838ZM295.05 36.5851C294.864 32.872 293.069 30.8297 289.604 30.8297C286.448 30.8297 284.22 32.872 283.725 36.5851H295.05Z" fill="#2D2D2D"/>
<path d="M305.202 13.3854H317.393L322.839 39.6247L328.471 13.3854H339.177L345.303 39.8723L350.997 13.3854H362.198L352.358 55.4674H339.734L333.236 28.7329L326.8 55.4674H315.042L305.202 13.3854Z" fill="#2D2D2D"/>
<path d="M365.725 13.3854H381.754C393.264 13.3854 398.648 18.5219 398.648 27.4334V27.6809C398.648 36.5305 392.707 41.2956 382.311 41.2956H377.731V55.4674H365.725V13.3854ZM381.197 33.0649C385.095 33.0649 387.138 31.2702 387.138 27.7428V27.4952C387.138 23.9059 385.034 22.4206 381.259 22.4206H377.731V33.003H381.197V33.0649Z" fill="#2D2D2D"/>
<path d="M56.6038 38.9403C55.9849 38.9403 55.3661 39.0022 54.7472 39.0641L45.8357 23.0358C47.8161 20.6841 48.9919 17.6518 48.9919 14.3718C48.9919 6.88374 42.9271 0.818985 35.439 0.818985C27.9509 0.818985 21.8861 6.94562 21.8861 14.3718C21.8861 17.5899 23.0001 20.5604 24.9185 22.912L15.6357 39.1259C14.955 39.0022 14.2743 38.9403 13.5935 38.9403C6.1054 38.9403 0.0406494 45.005 0.0406494 52.4931C0.0406494 59.9813 6.1054 66.046 13.5935 66.046C21.0816 66.046 27.1464 59.9813 27.1464 52.4931C27.1464 49.2751 26.0325 46.3046 24.114 43.953L33.3968 27.7391C34.0775 27.8628 34.7583 27.9247 35.439 27.9247C36.0579 27.9247 36.6767 27.8628 37.2956 27.8009L46.207 43.8292C44.2267 46.1809 43.0509 49.2132 43.0509 52.4931C43.0509 59.9813 49.1157 66.046 56.6038 66.046C64.0919 66.046 70.1566 59.9813 70.1566 52.4931C70.1566 45.005 64.0919 38.9403 56.6038 38.9403ZM35.439 9.73046C37.9763 9.73046 40.0804 11.8346 40.0804 14.3718C40.0804 16.9091 37.9763 19.0132 35.439 19.0132C32.9017 19.0132 30.7976 16.9091 30.7976 14.3718C30.7976 11.8346 32.9017 9.73046 35.439 9.73046ZM13.5935 57.1345C11.0562 57.1345 8.95212 55.0304 8.95212 52.4931C8.95212 49.9559 11.0562 47.8518 13.5935 47.8518C16.1308 47.8518 18.2349 49.9559 18.2349 52.4931C18.2349 55.0304 16.1308 57.1345 13.5935 57.1345ZM56.6038 57.1345C54.0665 57.1345 51.9624 55.0304 51.9624 52.4931C51.9624 49.9559 54.0665 47.8518 56.6038 47.8518C59.1411 47.8518 61.2452 49.9559 61.2452 52.4931C61.2452 55.0304 59.2029 57.1345 56.6038 57.1345Z" fill="#E34F43"/>
</svg>
