<svg xmlns="http://www.w3.org/2000/svg" xmlns:xlink="http://www.w3.org/1999/xlink" id="Layer_1" x="0px" y="0px" viewBox="0 0 512 512" style="enable-background:new 0 0 512 512;" xml:space="preserve"><g id="Big_Talk">	<path d="M406.7,460.3l-0.2,0c-41.2-1-76.1-21.1-91-52.6c-2.6-5.6-4.6-11.4-5.9-17.4c-5,0-14.6,0-37.5,0l-68,0  c-93.5,0.1-169.5-75.5-169.6-169.1S110,51.8,203.5,51.7c0.2,0,0.3,0,0.5,0h104c93.5,0,169.3,75.8,169.3,169.3  c0,54.5-26.3,105.7-70.5,137.5c-9.2,6.3-15.4,16.1-16.9,27.1c-0.7,6.6-0.5,13.4,0.7,19.9c2.9,15.6,10.5,29.9,21.8,41.1  c3.1,3.1,3.1,8.2,0,11.3C410.8,459.5,408.8,460.3,406.7,460.3L406.7,460.3z M309.7,374.3c7.5,0,14,5.3,15.6,12.7  c1,4.8,2.6,9.5,4.7,13.9c11.8,22.3,33.5,37.7,58.4,41.4c-6.8-10.3-11.4-21.8-13.5-34c-1.4-8.1-1.7-16.3-0.8-24.4  c2-15.6,10.6-29.5,23.5-38.4c68.8-49.4,84.5-145.2,35.1-214C403.7,91.4,357.4,67.7,308,67.7H204c-84.7,0-153.3,68.7-153.3,153.4  s68.7,153.3,153.4,153.3l68,0c23,0,32.5,0,37.4,0L309.7,374.3z"></path></g><g>	<circle cx="156.6" cy="217.2" r="19.6"></circle>	<circle cx="248.1" cy="217.2" r="19.6"></circle>	<circle cx="343.6" cy="217.2" r="19.6"></circle></g></svg>