<svg xmlns="http://www.w3.org/2000/svg" clip-rule="evenodd" fill-rule="evenodd" height="512" viewBox="0 0 512 512" width="512"><g id="Layer_x0020_1"><g id="_408868416"><g><path d="m459 476h-203c-4 0-7-3-7-7s3-7 7-7h203c21 0 39-20 39-44v-22c0-24-18-43-39-43-4 0-7-3-7-7s3-7 7-7c29 0 53 26 53 57v22c0 15-6 30-15 41-11 11-24 17-38 17z"></path></g><g><path d="m411 138h-155c-4 0-7-3-7-7s3-7 7-7h155c4 0 7 3 7 7s-3 7-7 7z"></path></g><g><path d="m505 425c-4 0-7-3-7-7v-324c0-24-18-44-40-44h-40v289h44c4 0 7 3 7 7s-3 7-7 7h-51c-4 0-7-3-7-7v-303c0-4 3-7 7-7h47c30 0 54 26 54 58v324c0 4-3 7-7 7z"></path></g><g><path d="m256 476h-202c-30 0-54-26-54-58v-22c0-15 6-30 16-40 10-11 23-17 38-17 4 0 7 3 7 7s-3 7-7 7c-22 0-40 19-40 43v22c0 24 18 44 40 44h202c4 0 7 3 7 7s-3 7-7 7z"></path></g><g><path d="m256 138h-155c-4 0-7-3-7-7s3-7 7-7h155c4 0 7 3 7 7s-3 7-7 7z"></path></g><g><path d="m7 425c-4 0-7-3-7-7v-324c0-32 24-58 54-58h47c4 0 7 3 7 7v303c0 4-3 7-7 7h-51c-4 0-7-3-7-7s3-7 7-7h44v-289h-40c-22 0-40 20-40 44v324c0 4-3 7-7 7z"></path></g><g><path d="m356 290h-200c-3 0-5-2-6-4-2-3-1-6 1-8l100-100c1-1 3-2 5-2s3 1 5 2l100 100c2 2 2 5 1 8-1 2-3 4-6 4zm-183-14h166l-83-83z"></path></g><g><path d="m344 424h-175c-4 0-7-3-7-7v-134c0-4 3-7 7-7s7 3 7 7v127h161v-127c0-4 3-7 7-7s7 3 7 7v134c0 4-3 7-7 7z"></path></g><g><path d="m295 424c-4 0-7-3-7-7v-60h-64v60c0 4-3 7-7 7s-7-3-7-7v-67c0-4 3-7 7-7h78c4 0 7 3 7 7v67c0 4-3 7-7 7z"></path></g></g></g></svg>