<svg xmlns="http://www.w3.org/2000/svg" id="Bahan_copy" height="512" viewBox="0 0 64 64" width="512" data-name="Bahan copy"><path d="m59.6377 27.6875c-5.54962-4.59472-18.76244-15.52827-24.44239-20.2305a5.00507 5.00507 0 0 0 -6.375-.001l-24.45752 20.2315a1 1 0 0 0 1.27448 1.541l7.55267-6.24765v27.89315a4.00427 4.00427 0 0 0 4 4h29.22467l1.58978 1.58985c4.00095 3.79938 9.73966-1.91689 5.92471-5.9249l-3.119-3.11929v-24.442l7.55224 6.25086a1.0004 1.0004 0 0 0 1.27536-1.54102zm-6.48096 25.8135a2.2037 2.2037 0 0 1 -3.73831 1.54873l-12.001-12.00186a3.30053 3.30053 0 0 0 -3.03662-.86426 6.849 6.849 0 0 1 -8.20841-6.446c1.10282.95657 2.27731 2.90411 3.9452 2.6608l3.19387-.30663a2.5 2.5 0 0 0 2.24659-2.24512l.30566-3.19336a2.48287 2.48287 0 0 0 -.71924-2.00391l-1.93744-1.93774a6.8606 6.8606 0 0 1 6.44856 8.1927 3.30376 3.30376 0 0 0 .858 3.0468l12.00147 12.002a2.17519 2.17519 0 0 1 .64167 1.54785zm-4.34668-8.08149-6.88184-6.88238a1.31635 1.31635 0 0 1 -.31543-1.2207 8.82923 8.82923 0 0 0 -10.84279-10.34182 1.009 1.009 0 0 0 -.4805 1.63411c.019.02976 3.40754 3.42872 3.44145 3.45571a.49073.49073 0 0 1 .14208.39651l-.30616 3.19433a.497.497 0 0 1 -.44628.44629l-3.19483.30664a.515.515 0 0 1 -.39746-.14257c-.212-.15042-3.59225-3.75842-3.82553-3.65042a1.02665 1.02665 0 0 0 -1.26819.69536 8.82113 8.82113 0 0 0 10.35888 10.83006 1.31268 1.31268 0 0 1 1.20947.32128l8.41174 8.41209h-27.22473a2.00229 2.00229 0 0 1 -2-2v-29.54758l14.90479-12.32935a3.0033 3.0033 0 0 1 3.82519.001l14.89014 12.32426z" fill="rgb(0,0,0)"></path></svg>