<svg xmlns="http://www.w3.org/2000/svg" width="17" height="24" viewBox="0 0 17 24" fill="none"><g clip-path="url(#clip0_0_395)"><path d="M7.23438 12.0043L16.2769 17.1339C16.3496 17.1771 16.4326 17.2004 16.5174 17.2014C16.6022 17.2024 16.6857 17.181 16.7593 17.1394C16.833 17.0978 16.8941 17.0375 16.9365 16.9648C16.9789 16.8921 17.0009 16.8095 17.0003 16.7255V7.27595C17.0014 7.19184 16.9796 7.10899 16.9373 7.03608C16.8949 6.96316 16.8336 6.90286 16.7596 6.86148C16.6857 6.8201 16.6019 6.79917 16.5169 6.80088C16.432 6.80258 16.3491 6.82686 16.2769 6.87117L7.23438 12.0043Z" fill="#48D6D2"></path><path d="M16.0876 4.59891L9.90606 0.0962214C9.84182 0.0475844 9.76645 0.0153836 9.68664 0.00246932C9.60683 -0.0104449 9.52504 -0.00367422 9.4485 0.0221821C9.37197 0.0480383 9.30305 0.0921827 9.24784 0.150707C9.19264 0.209232 9.15286 0.280332 9.13202 0.357714L6.875 10.3876L16.0333 5.37264C16.103 5.33714 16.1622 5.28444 16.2054 5.21964C16.2485 5.15484 16.274 5.08012 16.2795 5.0027C16.2849 4.92528 16.2701 4.84777 16.2365 4.77767C16.2029 4.70756 16.1516 4.64723 16.0876 4.60249" fill="#48D6D2"></path><path d="M9.89883 23.9063L16.0876 19.4036C16.1516 19.3582 16.203 19.2975 16.2367 19.227C16.2705 19.1566 16.2855 19.0788 16.2804 19.001C16.2754 18.9232 16.2503 18.8479 16.2077 18.7823C16.1651 18.7168 16.1063 18.6631 16.0369 18.6263L6.875 13.6113L9.13202 23.6412C9.15074 23.7191 9.18872 23.7912 9.24254 23.851C9.29636 23.9108 9.36433 23.9564 9.44036 23.9838C9.51638 24.0111 9.59808 24.0193 9.6781 24.0077C9.75813 23.996 9.83397 23.9649 9.89883 23.917" fill="#48D6D2"></path><path d="M4.88318 11.8215L7.23425 0.928385C7.2522 0.838146 7.24256 0.744654 7.20655 0.659875C7.17054 0.575096 7.1098 0.502887 7.03211 0.452492C6.95442 0.402097 6.86332 0.375809 6.77045 0.376991C6.67759 0.378174 6.5872 0.406774 6.51084 0.459131L0.488502 5.03346C0.336004 5.14932 0.212593 5.29851 0.127893 5.46938C0.043193 5.64025 -0.000506033 5.82818 0.000203669 6.01853V17.6245C-0.00332406 17.8179 0.0390193 18.0093 0.123828 18.1835C0.208637 18.3577 0.333543 18.5098 0.488502 18.6275L6.4819 23.1839C6.55826 23.2363 6.64865 23.2649 6.74152 23.266C6.83438 23.2672 6.92549 23.2409 7.00318 23.1905C7.08087 23.1401 7.1416 23.0679 7.17761 22.9832C7.21362 22.8984 7.22327 22.8049 7.20531 22.7146L4.88318 11.8215Z" fill="#48D6D2"></path></g><defs><clipPath id="clip0_0_395"><rect width="17" height="24" fill="white"></rect></clipPath></defs></svg>