<?xml version="1.0" encoding="UTF-8"?>
<svg xmlns="http://www.w3.org/2000/svg" width="53" height="60" viewBox="0 0 53 60" fill="none" class=" lazyloaded">
  <path d="M52.5329 25.9146C51.8087 23.9495 50.317 22.2338 48.3331 21.0838C45.9216 19.6859 41.1008 18.2523 33.2919 21.515C39.9871 16.3643 41.1579 11.4653 41.1579 8.67355C41.1579 6.37359 40.4239 4.21905 39.091 2.60676C37.7015 0.925661 35.776 -0.00012207 33.6692 -0.00012207C29.7008 -0.00012207 27.3284 2.47915 26.4898 3.54664C26.4898 3.54664 26.4892 3.54629 26.4881 3.54489C25.6522 2.47903 23.2796 -0.00012207 19.3121 -0.00012207C17.2053 -0.00012207 15.2798 0.925661 13.8901 2.60676C12.5573 4.21905 11.8234 6.37359 11.8234 8.67343C11.8234 11.4622 12.9917 16.3534 19.6675 21.498C11.8826 18.2572 7.07428 19.688 4.66685 21.0836C2.68301 22.2338 1.19147 23.9494 0.467118 25.9145C-0.28762 27.9626 -0.123678 30.0991 0.929253 31.9301C2.91274 35.3798 6.23757 36.2034 7.57693 36.3978C7.5795 36.3996 7.57822 36.4027 7.57763 36.4041C7.07649 37.6636 6.12474 40.9656 8.108 44.4146C9.04892 46.0511 10.5228 47.1778 12.37 47.6729C13.0451 47.8538 13.7505 47.9428 14.4675 47.9428C16.1021 47.9426 17.7976 47.48 19.3351 46.5888C20.9643 45.6444 23.1572 43.7519 24.7447 40.0265V49.1204C24.7447 52.9811 21.6038 56.122 17.7431 56.122C16.7785 56.122 15.9965 56.904 15.9965 57.8686C15.9965 58.8331 16.7785 59.6151 17.7431 59.6151C23.5298 59.6151 28.2378 54.9071 28.2378 49.1204V39.9852C29.8266 43.7379 32.0298 45.6409 33.6649 46.5888C35.2025 47.4802 36.8977 47.9429 38.5325 47.9428C39.2494 47.9426 39.9549 47.8537 40.63 47.6729C42.4772 47.1778 43.9512 46.0511 44.892 44.4146C46.8753 40.9656 45.9235 37.6637 45.4224 36.4041L45.425 36.3974C46.7624 36.2034 50.0873 35.3798 52.0707 31.9301C53.1237 30.0991 53.2876 27.9627 52.5329 25.9146Z" fill="white"></path>
</svg>
