<svg xmlns="http://www.w3.org/2000/svg" id="Layer_1" data-name="Layer 1" viewBox="0 0 970.56 873.51"><path d="M722.72,71.78a65.64,65.64,0,0,1,35.83,6.82A499.44,499.44,0,0,1,888.21,192.91c6.83,9.12,10.8,18.76,11.95,29a55.06,55.06,0,0,1,22.18,20.47,497.53,497.53,0,0,1,59.71,143.31q6.8,30.72-17.06,52.89-10.25,12-25.59,11.94,1.68,25.59,1.7,49.48-1.71,122.84-59.71,220.08-58,99-157,157-97.24,58-220.08,59.71Q371.27,935,267.2,866.8,164.84,800.28,110.25,687.67a61.9,61.9,0,0,1-29,3.41q-32.43-6.8-44.35-37.53Q13,580.21,13,500V482.94a63.84,63.84,0,0,1,13.65-34.12,20.05,20.05,0,0,0,3.41-5.12l8.53-8.53Q19.79,413,26.65,385.69A496.42,496.42,0,0,1,86.36,242.38q11.91-18.75,32.42-23.88,32.39-8.52,64.83-15.36,59.7-64.81,143.31-102.36,81.88-37.5,177.43-37.53A429.33,429.33,0,0,1,640.83,85.43Q680.06,76.91,722.72,71.78ZM67.59,484.65V500a425.94,425.94,0,0,0,5.12,66.54,368.52,368.52,0,0,0,17.06,70,640.35,640.35,0,0,1,41-56.3A998.82,998.82,0,0,1,313.27,402.75a1538.92,1538.92,0,0,0-215,46.07Q83,465.89,67.59,484.65Zm186-237.15a1089.79,1089.79,0,0,0-121.14,23.89A428.69,428.69,0,0,0,100,336.22a475.21,475.21,0,0,0-18.77,52.89,28.53,28.53,0,0,1-1.7,8.53q30.71-8.52,59.71-15.36A161.72,161.72,0,0,1,158,377.16,88.14,88.14,0,0,0,176.78,372a1531.55,1531.55,0,0,1,240.56-32.41,116.6,116.6,0,0,1,18.76-1.71q34.11-3.39,66.54-3.41a237.52,237.52,0,0,1,29,1.71h20.48c-1.15,0-1.15.59,0,1.7Q715.91,343,867.74,382.28q30.71,6.84,61.42,15.36-8.56-30.72-20.47-61.42a38.72,38.72,0,0,0-5.12-11.94,467.07,467.07,0,0,0-27.3-52.89q-78.49-18.75-158.66-30.71c-3.42-1.12-6.27-1.12-8.53,0A12.78,12.78,0,0,1,704,239a1917.6,1917.6,0,0,0-201.32-13.65Q448,227,391.75,230.44a13.29,13.29,0,0,0-5.12,1.71A1254.88,1254.88,0,0,0,257,245.8,4.9,4.9,0,0,0,253.56,247.5ZM407.1,510.24q15.36-15.36,15.36-39.24-1.72-35.83-35.83-49.48-37.54,23.91-73.36,51.18,1.68,23.93,17.06,37.54,15.35,15.35,37.53,15.35Q391.74,525.59,407.1,510.24ZM688.6,740.56q15.36-20.47-1.7-39.24Q659.59,675.73,617,657t-99-20.47q-42.67,0-76.78,11.94Q419,657,424.16,682.55q8.52,22.19,34.12,17.06,25.59-8.52,59.72-8.53,44.34,0,76.77,15.35,34.11,15.36,54.59,35.83Q669.84,755.94,688.6,740.56Zm40.95-614.19a1077.76,1077.76,0,0,0-203,46.07q153.54,1.71,298.56,30.7a356,356,0,0,0-29-29A395.53,395.53,0,0,0,729.55,126.37ZM680.07,510.24q15.36-15.36,15.36-39.24,0-22.15-15.36-37.54T640.83,416.4A58.71,58.71,0,0,0,586.24,471q1.68,23.91,17.06,39.24t37.53,15.35Q664.71,525.59,680.07,510.24Z" transform="translate(-13 -63.25)"></path></svg>