<svg xmlns="http://www.w3.org/2000/svg" id="Layer_1" data-name="Layer 1" viewBox="0 0 971.32 863.4"><path d="M28.07,829.73q15.18-15.18,38.79-15.18t38.78,15.18q15.18,15.18,15.18,38.78T105.64,907.3q-15.18,15.18-38.78,15.18T28.07,907.3q-15.18-15.18-15.18-38.79T28.07,829.73Zm866.77-167a463.59,463.59,0,0,1-96.12,140l-28.67-10.12q-30.34-11.77-45.53-38.79,42.12-32,43.85-74.2-3.4-57.3-79.26-96.12-75.89-37.07-190.56-38.78Q383.85,546.42,308,583.52q-75.88,38.82-79.26,96.12,1.65,42.17,43.85,74.2-15.18,27-45.53,38.79l-27,10.12a449.31,449.31,0,0,1-97.8-140q-35.42-79.26-35.41-172,1.65-121.42,59-217.54Q183.18,175.47,281,118.1q96.12-57.3,217.53-59,121.43,1.68,217.54,59,97.77,57.33,155.14,155.14,57.3,96.12,59,217.54Q930.25,583.53,894.84,662.78Zm-558.17-32q62.35-30.35,160.2-32,102.82,1.69,163.57,32v96.12q0,40.47,23.61,70.83a110.08,110.08,0,0,0,59,43.84l57.34,20.24q20.24,6.71,21.92,28.67-3.41,28.66-32,32H206.82q-28.69-3.42-32-32,1.65-21.93,21.92-28.67L254,841.53a110.26,110.26,0,0,0,59-43.84q23.61-30.36,23.61-70.83Zm-8.43-247.89-60.71,72.51c-4.5,4.5-6.19,9-5.06,13.49q0,11.81,10.12,16.87,8.43,5.05,20.23,0l150.09-81c9-4.47,13.49-11.8,13.49-21.92s-4.5-17.42-13.49-21.92L292.82,280q-11.81-5.07-20.23,0c-6.75,3.37-10.12,9-10.12,16.86-1.13,4.5.56,9,5.06,13.49Zm62.39,404.72q1.65,25.29,27,27,25.29-1.65,27-27-1.68-25.29-27-27Q392.32,762.27,390.63,787.57Zm134.91-27q25.29-1.65,27-27-1.69-25.3-27-27-25.3,1.68-27,27Q500.22,758.9,525.54,760.59Zm15.17-377.74c0,10.12,4.48,17.45,13.49,21.92l151.77,81c6.75,3.37,12.91,3.37,18.55,0q10.13-5.07,10.12-16.87c0-4.47-1.69-9-5.06-13.49l-60.71-72.51,60.71-72.51c3.37-4.47,5.06-9,5.06-13.49,0-7.85-3.37-13.49-10.12-16.86-5.64-3.38-11.8-3.38-18.55,0L554.2,360.93Q540.69,367.68,540.71,382.85ZM969,853.34q-15.18,15.17-38.79,15.17t-38.78-15.17q-15.18-15.18-15.18-38.79t15.18-38.78q15.18-15.18,38.78-15.18T969,775.77q15.18,15.16,15.18,38.78T969,853.34Z" transform="translate(-12.89 -59.08)"></path></svg>