<svg xmlns="http://www.w3.org/2000/svg" clip-rule="evenodd" fill-rule="evenodd" height="512" viewBox="0 0 43.3492 43.3492" width="512"><g id="Layer_x0020_1"><g id="_294710296"><path id="_294711208" d="m29.5247 11.9269c.2672-.4628.1087-1.0546-.3541-1.3218s-1.0546-.1087-1.3218.3541l-7.51 13.0077c-.2672.4628-.1086 1.0546.3542 1.3218s1.0546.1086 1.3218-.3542zm-18.4508 6.0169c-.2672.4629-.1086 1.0547.3542 1.3219s1.0546.1086 1.3218-.3542l7.2181-12.5022c.2672-.4628.1086-1.0546-.3542-1.3218s-1.0546-.1086-1.3218.3542z" fill-rule="nonzero"></path><rect id="_294711136" height="16.16" rx="1.327" transform="matrix(.292 .169 -.169 .292 18.926 -.487)" width="52.775"></rect><g fill-rule="nonzero"><path id="_294710344" d="m13.5899 15.8629 3.1339 1.8093-.7647 1.3306-3.1339-1.8094z"></path><path id="_294710152" d="m15.0952 13.2608 1.9745 1.14-.7706 1.3305-1.9746-1.14z"></path><path id="_294710704" d="m16.5945 10.6587 3.1339 1.8093-.7646 1.3306-3.1339-1.8093z"></path></g><path id="_294710608" d="m13.2522 40.1117 8.7626-15.1772c-1.2481-.7206-2.2044-1.9466-3.4525-2.6672-1.248-.7205-2.7879-.9357-4.036-1.6563s-2.2044-1.9466-3.4524-2.6672l-9.0544 15.6827c-1.7834 3.089-.7153 7.0754 2.3738 8.8589 3.089 1.7834 7.0755.7152 8.8589-2.3737z"></path><path id="_294710560" d="m38.6882 10.6119c-2.1815 2.6248-3.1873 4.778-3.4397 6.4596-.4585 3.0539 1.5674 4.5527 3.5475 4.4964 1.8968-.054 3.7517-1.5355 3.3395-4.4442-.2393-1.6892-1.2431-3.8598-3.4473-6.5118z"></path></g></g></svg>