<svg xmlns="http://www.w3.org/2000/svg" id="carton_box" height="512" viewBox="0 0 98 98" width="512" data-name="carton box"><path d="m81.1 55.5v17.2c0 .4-.2.7-.6.9l-30.5 14.1v-31.8l10.2 8.4c.5.4 1.2.7 1.9.7s1-.1 1.4-.3l17.5-9.1zm-43.3 8.8c-.5.4-1.2.7-1.9.7s-1-.1-1.4-.3l-17.5-9.1v17.2c0 .4.2.7.6.9l30.5 14.1v-31.8l-10.2 8.4zm55.2-17.8c0 .3-.2.6-.5.8l-29.9 15.5c-.1 0-.3.1-.5.1s-.5 0-.6-.2l-12.5-10.2-12.5 10.2c-.2.1-.4.2-.6.2s-.3 0-.5-.1l-29.9-15.5c-.3-.2-.5-.5-.5-.8s.1-.7.4-.9l11.1-8.9-10-10c-.2-.2-.3-.6-.3-.9s.3-.6.6-.7l31.1-14.3c.4-.2.8 0 1.1.2l10 10 10-10c.3-.3.7-.4 1.1-.2l31.1 14.3c.3.1.5.4.6.7 0 .3 0 .7-.3.9l-10 10 11.1 8.9c.3.2.4.5.4.9zm-15.3-9.7-28.7-13.2-28.7 13.2 28.7 13.2z"></path></svg>