<svg xmlns="http://www.w3.org/2000/svg" id="Capa_1" height="512" viewBox="0 0 512 512" width="512"><g><path d="m507.606 140.393-136-136c-5.857-5.857-15.355-5.857-21.213 0l-31 31c-5.858 5.857-5.858 15.355 0 21.213l13.394 13.394-143.278 143.277c-12.717 12.717-19.686 29.655-19.622 47.696.133 37.951-7.337 67.263-20.494 80.42l-73.393 73.394-9.394-9.394c-5.857-5.857-15.355-5.857-21.213 0l-41 41c-5.858 5.857-5.858 15.355 0 21.213l40 40c5.859 5.859 15.355 5.858 21.213 0l41-41c5.858-5.857 5.858-15.355 0-21.213l-9.393-9.393 73.394-73.394c13.043-13.042 41.952-20.495 79.418-20.495.413 0 .832.002 1.243.002 17.95 0 34.796-6.964 47.455-19.623l143.277-143.277 13.394 13.394c5.858 5.858 15.355 5.858 21.213 0l31-31c5.857-5.858 5.857-15.356-.001-21.214zm-230.097 160.884c-6.848 6.848-16.06 10.836-26.376 10.836-17.503-.059-38.277 1.32-57.545 6.3 4.979-19.269 6.361-40.025 6.3-57.545-.035-9.987 3.813-19.355 10.835-26.378l53.277-53.277 66.787 66.787zm74.491-74.49-66.787-66.787 68.787-68.787 66.787 66.787z"></path></g></svg>