<svg xmlns="http://www.w3.org/2000/svg" height="512" viewBox="0 0 24 24" width="512"><g id="Layer_2" data-name="Layer 2"><path d="m20.18164 4.18164a17.37181 17.37181 0 0 1 -3.93164-.88864 17.30919 17.30919 0 0 1 -3.33887-1.59961 1.756 1.756 0 0 0 -1.82226 0l-.001.001a17.327 17.327 0 0 1 -3.33787 1.59861 17.37551 17.37551 0 0 1 -3.93066.88867 1.74735 1.74735 0 0 0 -1.56934 1.73923v5.19531a10.75556 10.75556 0 0 0 5.5293 9.39649l3.37011 1.873a1.73414 1.73414 0 0 0 1.7002 0l3.37109-1.873a10.75556 10.75556 0 0 0 5.5293-9.39649v-5.19531a1.74728 1.74728 0 0 0 -1.56836-1.73926zm-4.20215 6.002-3.75 4a.9987.9987 0 0 1 -1.39355.06348l-2.25-2a.99954.99954 0 1 1 1.32812-1.49414l1.52246 1.35254 3.084-3.28906a1.00278 1.00278 0 0 1 .72948-.31646 1.00006 1.00006 0 0 1 .72949 1.68359z"></path></g></svg>