<svg xmlns="http://www.w3.org/2000/svg" fill="none" height="512" viewBox="0 0 48 48" width="512"><path clip-rule="evenodd" d="m19 4c.5523 0 1 .44772 1 1v8.3432c0 1.0608-.4214 2.0782-1.1716 2.8284l-.5038.5039c-1.2839 1.2838-1.2839 3.3653 0 4.6491 1.0005 1.0005 2.5291 1.2486 3.7947.6158l.2424-.1212c1.0313-.5157 2.2453-.5157 3.2766 0l.2424.1212c1.2656.6328 2.7942.3847 3.7947-.6158 1.2839-1.2838 1.2839-3.3653 0-4.6491l-.5038-.5039c-.7502-.7502-1.1716-1.7676-1.1716-2.8284v-8.3432c0-.55228.4477-1 1-1s1 .44772 1 1v2.02425c6.9912 2.47102 12 9.13845 12 16.97575s-5.0088 14.5048-12 16.9758v2.0242c0 .5523-.4477 1-1 1s-1-.4477-1-1v-8.3431c0-1.0609.4214-2.0783 1.1716-2.8285l.5038-.5038c1.2839-1.2838 1.2839-3.3653 0-4.6491-1.0005-1.0006-2.5291-1.2487-3.7947-.6158l-.2424.1212c-1.0313.5156-2.2453.5156-3.2766 0l-.2424-.1212c-1.2656-.6329-2.7942-.3848-3.7947.6158-1.2839 1.2838-1.2839 3.3652 0 4.6491l.5038.5038c.7502.7502 1.1716 1.7676 1.1716 2.8285v8.3431c0 .5523-.4477 1-1 1s-1-.4477-1-1v-2.0242c-6.9912-2.471-12-9.1385-12-16.9758s5.0088-14.50473 12-16.97575v-2.02425c0-.55228.4477-1 1-1z" fill="rgb(0,0,0)" fill-rule="evenodd"></path></svg>