<svg xmlns="http://www.w3.org/2000/svg" xmlns:xlink="http://www.w3.org/1999/xlink" id="Layer_1" x="0px" y="0px" viewBox="0 0 512 512" style="enable-background:new 0 0 512 512;" xml:space="preserve"><style type="text/css">	.st0{fill:#FFCC53;}	.st1{fill:#09243C;}</style><path class="st0" d="M263.1,284.5h-80.3V95.6c0-22.2,18-40.2,40.2-40.2h0c22.2,0,40.2,18,40.2,40.2V284.5z"></path><path class="st1" d="M490.7,298.7c0-94.1-76.6-170.7-170.7-170.7h-42.7V96c0-25.7-18.3-47.3-42.7-52.2V10.7C234.7,4.8,229.9,0,224,0 s-10.7,4.8-10.7,10.7v33.1C189,48.7,170.7,70.3,170.7,96v192c0,5.9,4.8,10.7,10.7,10.7h85.3c5.9,0,10.7-4.8,10.7-10.7V149.3H320 c82.3,0,149.3,67,149.3,149.3S402.3,448,320,448h-85.3v-64H352c5.9,0,10.7-4.8,10.7-10.7s-4.8-10.7-10.7-10.7H96 c-5.9,0-10.7,4.8-10.7,10.7S90.1,384,96,384h117.3v64H32c-5.9,0-10.7,4.8-10.7,10.7c0,5.9,4.8,10.7,10.7,10.7h53.3v32 c0,5.9,4.8,10.7,10.7,10.7s10.7-4.8,10.7-10.7v-32H320c7.2,0,14.3-0.6,21.3-1.5v33.5c0,5.9,4.8,10.7,10.7,10.7 c5.9,0,10.7-4.8,10.7-10.7v-37.6C436.2,444.7,490.7,378,490.7,298.7z M256,277.3h-64V96c0-17.6,14.4-32,32-32s32,14.4,32,32V277.3z"></path></svg>