<svg xmlns="http://www.w3.org/2000/svg" fill="none" height="512" viewBox="0 0 24 24" width="512"><path clip-rule="evenodd" d="m23 12c0 6.0751-4.9249 11-11 11-6.07513 0-11-4.9249-11-11 0-6.07513 4.92487-11 11-11 6.0751 0 11 4.92487 11 11zm-10 5c0 .5523-.4477 1-1 1s-1-.4477-1-1 .4477-1 1-1 1 .4477 1 1zm-3-7.00001c0-1.10456.8954-1.99999 2-1.99999s2 .89543 2 2c0 1.1046-.8954 2-2 2-.5523 0-1 .4477-1 1s.4477 1 1 1c2.2091 0 4-1.7909 4-4 0-2.20914-1.7909-4-4-4-2.20914 0-4 1.79086-4 4 0 .5523.44771 1 1 1s1-.4477 1-1.00001z" fill="rgb(0,0,0)" fill-rule="evenodd"></path></svg>