<svg xmlns="http://www.w3.org/2000/svg" height="512" viewBox="0 0 24 24" width="512"><g id="Layer_2" data-name="Layer 2"><path d="m20.22 4.63c-1.43-1.63-4.5-2.63-8.22-2.63s-6.79 1-8.22 2.63c-2.38 2.76-2.38 12 0 14.74 1.43 1.63 4.5 2.63 8.22 2.63s6.79-1 8.22-2.63c2.38-2.76 2.38-11.98 0-14.74zm-8.22 12.87a1 1 0 1 1 1-1 1 1 0 0 1 -1 1zm1-4.88v.88a1 1 0 0 1 -2 0v-.93a1.89 1.89 0 0 1 1.33-1.83 1.14 1.14 0 1 0 -1.47-1.1 1 1 0 0 1 -2 0 3.15 3.15 0 0 1 6.14-.82 3.15 3.15 0 0 1 -2 3.8z"></path></g></svg>