<svg xmlns="http://www.w3.org/2000/svg" id="Layer_1" data-name="Layer 1" viewBox="0 0 746.34 523.25"><path d="M304.21,573.88q-71,0-127.77-57.8T119.66,344.7q0-129.76,70-211.93T389.39,50.63q46.64,0,73,6.08V150q-28.43-4-73-4.06-69,0-111.54,46.65-40.61,40.59-46.65,107.49,26.34-32.43,85.18-32.45,60.86,0,103.43,41.57t42.6,108.51q0,69-44.62,112.56T304.21,573.88Zm403.59,0q-71,0-127.76-57.8T523.25,344.7q0-129.76,70-211.93T793,50.63q44.58,0,73,6.08V150q-28.43-4-73-4.06-69,0-111.55,46.65-40.59,40.59-46.64,107.49,26.33-32.43,85.18-32.45,60.84,0,103.43,41.57T866,417.72q0,69-44.62,112.56T707.8,573.88Z" transform="translate(-119.66 -50.63)"></path></svg>