<svg xmlns="http://www.w3.org/2000/svg" id="Layer_1" height="512" viewBox="0 0 512 512" width="512"><path clip-rule="evenodd" d="m196.05 251.88-148.93 85.99c-11.13 6.42-19.1 16.85-22.45 29.36-3.35 12.5-1.66 25.52 4.76 36.64 6.42 11.13 16.85 19.1 29.36 22.45s25.52 1.66 36.64-4.76l148.94-85.99zm-109.6 90.79c1.93 3.35.78 7.63-2.56 9.56l-21.36 12.33c-3.99 2.31-6.86 6.09-8.08 10.64-1.22 4.56-.63 9.27 1.68 13.26 1.93 3.35.79 7.63-2.56 9.56-1.1.64-2.31.94-3.49.94-2.42 0-4.77-1.25-6.07-3.5-4.17-7.23-5.27-15.71-3.08-23.88s7.38-14.97 14.6-19.14l21.36-12.33c3.34-1.93 7.62-.79 9.56 2.56zm400.38-258.67c7.07 37.15-3.3 74.87-27.53 98.1-23.01 22.06-55.45 28.02-91.32 16.76-2.8-.88-5.86.09-7.65 2.42l-27.86 36.31-27.92-48.35zm-152.79 194.13c-1.16 4.32-3.91 7.92-7.75 10.14l-21.61 12.48-48.31-83.69 36.06-20.82 39.98 69.24c2.21 3.84 2.79 8.33 1.63 12.65zm-77.54 50.44-48.32-83.69 36.06-20.82 48.31 83.69z" fill-rule="evenodd"></path></svg>