<svg xmlns="http://www.w3.org/2000/svg" id="Solid" height="512" viewBox="0 0 128 128" width="512"><path d="m108.637 38.227c-12.688-21.986-31.714-18.252-41.39-15.513-4.554 1.289-8.44-1.221-11.432-4.888a28.2 28.2 0 0 1 -5.446-10.209 6.424 6.424 0 0 0 -12.513 2.853c1.341 7.485 4.906 18.8 14.378 25.724 12.391 9.056 11.666 43.19-4.051 47.957-6.983 2.119-20.783-.666-28.373 7.164a5.763 5.763 0 0 1 -2.357 1.458c-2.954.963-9.625 4.673-8.884 18.477.225 4.193.416 7.258.563 9.422a4.744 4.744 0 0 0 9.477-.313c.034-3.836.55-9.078 2.839-12.067a2.693 2.693 0 0 1 4.072-.271c4.3 4.426 17.624 15.626 39.249 11.82 31.031-5.462 62.323-49.636 43.868-81.614zm-2.756 32.62a2 2 0 0 1 -3.39.994 14.118 14.118 0 0 0 -9.161-4.331c-10.678-.987-11.93 7.148-25.53 1.349a1.994 1.994 0 0 1 -1.179-2.134 51.379 51.379 0 0 0 -4.311-28.195 7.506 7.506 0 0 1 1-7.76h.01a7.922 7.922 0 0 1 4.46-2.7c32.32-7.332 43.283 19.13 38.101 42.777z"></path></svg>