<svg xmlns="http://www.w3.org/2000/svg" height="512" viewBox="0 0 30 30" width="512"><g id="Layer_2" data-name="Layer 2"><g id="United_kingdom" data-name="United kingdom"><circle cx="15" cy="15" fill="#012169" r="15"></circle><path d="m26.558 5.441-11.558 6.935-11.558-6.935a14.974 14.974 0 0 0 -2.314 3.859l9.5 5.7-9.5 5.7a14.971 14.971 0 0 0 2.313 3.86l11.559-6.936 11.559 6.935a14.971 14.971 0 0 0 2.313-3.86l-9.5-5.7 9.5-5.7a14.974 14.974 0 0 0 -2.314-3.858z" fill="#fff"></path><path d="m2.988 23.957 13.469-8.082 11.392 6.835a15.011 15.011 0 0 0 .709-1.325l-12.1-7.26 11.391-6.834q-.389-.646-.837-1.248l-13.47 8.082-11.392-6.834q-.385.642-.708 1.324l12.1 7.26-11.392 6.835a15 15 0 0 0 .838 1.247z" fill="#c8102e"></path><path d="m18.75.492a14.537 14.537 0 0 0 -7.5 0v10.758h-10.758a14.537 14.537 0 0 0 0 7.5h10.758v10.758a14.537 14.537 0 0 0 7.5 0v-10.758h10.758a14.537 14.537 0 0 0 0-7.5h-10.758z" fill="#fff"></path><path d="m17.25.187a15.032 15.032 0 0 0 -2.25-.187 15.032 15.032 0 0 0 -2.25.187v12.563h-12.563a15.032 15.032 0 0 0 -.187 2.25 15.032 15.032 0 0 0 .187 2.25h12.563v12.563a15.032 15.032 0 0 0 2.25.187 15.032 15.032 0 0 0 2.25-.187v-12.563h12.563a15.032 15.032 0 0 0 .187-2.25 15.032 15.032 0 0 0 -.187-2.25h-12.563z" fill="#c8102e"></path></g></g></svg>