<svg xmlns="http://www.w3.org/2000/svg" xmlns:xlink="http://www.w3.org/1999/xlink" id="Layer_1" x="0px" y="0px" viewBox="0 0 24 24" style="enable-background:new 0 0 24 24;" xml:space="preserve"><style type="text/css">	.st0{fill:#FFCC53;}	.st1{fill:#09243C;}</style><circle class="st0" cx="12.1" cy="6.1" r="5.5"></circle><path class="st1" d="M24,20.6c0,1.3-1.1,2.4-2.4,2.4H21v0.5c0,0.3-0.2,0.5-0.5,0.5S20,23.8,20,23.5V23h-0.5c-1.4,0-2.5-1.1-2.5-2.5 c0-0.3,0.2-0.5,0.5-0.5s0.5,0.2,0.5,0.5c0,0.8,0.7,1.5,1.5,1.5h2.1c0.8,0,1.4-0.6,1.4-1.4c0-0.7-0.5-1.3-1.2-1.4L19,18.8 c-1.2-0.2-2-1.2-2-2.4c0-1.3,1.1-2.4,2.4-2.4H20v-0.5c0-0.3,0.2-0.5,0.5-0.5s0.5,0.2,0.5,0.5V14h0.5c1.4,0,2.5,1.1,2.5,2.5 c0,0.3-0.2,0.5-0.5,0.5S23,16.8,23,16.5c0-0.8-0.7-1.5-1.5-1.5h-2.1c-0.8,0-1.4,0.6-1.4,1.4c0,0.7,0.5,1.3,1.2,1.4l2.8,0.5 C23.2,18.4,24,19.4,24,20.6z M18,6c0,3.3-2.7,6-6,6S6,9.3,6,6s2.7-6,6-6S18,2.7,18,6z M17,6c0-2.8-2.2-5-5-5S7,3.2,7,6s2.2,5,5,5 S17,8.8,17,6z M14.6,14.4C13.8,14.1,12.9,14,12,14c-5,0-9,4-9,9v0.5C3,23.8,3.2,24,3.5,24S4,23.8,4,23.5V23c0-4.4,3.6-8,8-8 c0.8,0,1.6,0.1,2.4,0.4c0.3,0.1,0.5-0.1,0.6-0.3C15.1,14.8,14.9,14.5,14.6,14.4L14.6,14.4z"></path></svg>