<svg width="14" height="14" viewBox="0 0 14 14" xmlns="http://www.w3.org/2000/svg" xmlns:xlink="http://www.w3.org/1999/xlink">
    <path id="Path" fill="#53c1a5" stroke="none" d="M 13.7762 6.45605 L 8.72032 1.40004 C 8.57599 1.25572 8.38364 1.1765 8.17853 1.1765 C 7.9732 1.1765 7.78096 1.25583 7.63664 1.40004 L 7.1776 1.85919 C 7.03339 2.00329 6.95395 2.19576 6.95395 2.40098 C 6.95395 2.60608 7.03339 2.80504 7.1776 2.94913 L 10.1271 5.90516 L 0.756334 5.90516 C 0.333834 5.90516 -0 6.23592 -0 6.65853 L -0 7.30765 C -0 7.73026 0.333834 8.09437 0.756334 8.09437 L 10.1606 8.09437 L 7.17772 11.0669 C 7.03351 11.2112 6.95406 11.3985 6.95406 11.6037 C 6.95406 11.8087 7.03351 11.9986 7.17772 12.1428 L 7.63675 12.6005 C 7.78107 12.7448 7.97332 12.8235 8.17865 12.8235 C 8.38375 12.8235 8.57611 12.7438 8.72043 12.5995 L 13.7763 7.5436 C 13.921 7.39882 14.0005 7.20555 14 7.00011 C 14.0004 6.79398 13.921 6.6006 13.7762 6.45605 L 13.7762 6.45605 Z"/>
</svg>
